<svg xmlns="http://www.w3.org/2000/svg" xmlns:xlink="http://www.w3.org/1999/xlink" width="137" height="137" viewBox="0 0 137 137">
  <defs>
    <linearGradient id="linear-gradient" x1="0.5" x2="0.5" y2="1" gradientUnits="objectBoundingBox">
      <stop offset="0" stop-color="#c20505"/>
      <stop offset="1" stop-color="#a0191d"/>
    </linearGradient>
    <clipPath id="clip-path">
      <rect id="Retângulo_48" data-name="Retângulo 48" width="84.001" height="93.605" fill="none"/>
    </clipPath>
  </defs>
  <g id="Grupo_102" data-name="Grupo 102" transform="translate(-978 -4135)">
    <circle id="Elipse_7" data-name="Elipse 7" cx="68.5" cy="68.5" r="68.5" transform="translate(978 4135)" fill="url(#linear-gradient)"/>
    <g id="Layer_2" data-name="Layer 2" transform="translate(1010 4157)">
      <g id="Layer_1" data-name="Layer 1">
        <g id="NewGroupe39">
          <g id="NewGroup0-10">
            <path id="Caminho_218" data-name="Caminho 218" d="M19.57,68.908A1.367,1.367,0,0,0,20.909,70.3H51.8a1.376,1.376,0,1,0,0-2.743H20.909a1.376,1.376,0,0,0-1.339,1.348Z" transform="translate(-1.251 -4.32)" fill="#fff"/>
            <path id="Caminho_219" data-name="Caminho 219" d="M20.9,77.362h30.89a1.376,1.376,0,1,0,0-2.743H20.9a1.376,1.376,0,1,0,0,2.743Z" transform="translate(-1.241 -4.771)" fill="#fff"/>
            <path id="Caminho_220" data-name="Caminho 220" d="M23.784,81.68a1.376,1.376,0,0,0,0,2.743H49.291a1.376,1.376,0,1,0,0-2.743Z" transform="translate(-1.44 -5.223)" fill="#fff"/>
            <path id="Caminho_221" data-name="Caminho 221" d="M27.2,47.823h3.744a5.7,5.7,0,0,0,11.074,0h3.744A2.452,2.452,0,0,1,48.2,50.276v5.111a.655.655,0,0,1-.655.655H25.407a.655.655,0,0,1-.655-.655V50.276A2.452,2.452,0,0,1,27.2,47.823Zm11.176-1.872a1.872,1.872,0,0,0,.889,1.6,2.949,2.949,0,0,1-5.513,0,1.872,1.872,0,0,0,.936-1.6,4.83,4.83,0,0,0,3.744,0ZM32.849,29.982a4.989,4.989,0,0,1,8.63,3.744L41.049,39.6c-.168,2.256-3.314,3.978-4.54,3.978S32.128,41.851,31.96,39.6l-.431-5.869a4.942,4.942,0,0,1,1.32-3.744ZM25.36,24.441h3.192a1.376,1.376,0,0,0,0-2.743H25.407A3.407,3.407,0,0,0,22,25.068V55.387a3.407,3.407,0,0,0,3.4,3.4H47.6a3.407,3.407,0,0,0,3.417-3.4V25.068a3.407,3.407,0,0,0-3.4-3.4h-12.7a1.376,1.376,0,0,0,0,2.743H47.6a.655.655,0,0,1,.655.655V45.661a5.092,5.092,0,0,0-2.443-.618h-4.68v-.7a6.655,6.655,0,0,0,2.649-4.577l.431-5.869a7.732,7.732,0,1,0-15.417,0l.431,5.869a6.655,6.655,0,0,0,2.668,4.587v.7h-4.68a5.092,5.092,0,0,0-2.443.618V25.077a.655.655,0,0,1,.655-.655Z" transform="translate(-1.407 -1.386)" fill="#fff"/>
            <g id="Grupo_85" data-name="Grupo 85" clip-path="url(#clip-path)">
              <path id="Caminho_222" data-name="Caminho 222" d="M79.327,75.891v2.93H76.351A2.181,2.181,0,0,0,74.17,81v2.977H71.23V81a2.181,2.181,0,0,0-2.181-2.181H66.073v-2.93h2.977A2.181,2.181,0,0,0,71.23,73.71V70.733H74.17V73.71a2.181,2.181,0,0,0,2.181,2.181Zm-2.415-5.719A2.181,2.181,0,0,0,74.731,68H70.669a2.181,2.181,0,0,0-2.181,2.181v2.967H65.511a2.181,2.181,0,0,0-2.181,2.181v4.053a2.181,2.181,0,0,0,2.181,2.181h2.977V84.54a2.181,2.181,0,0,0,2.181,2.181h4.062a2.181,2.181,0,0,0,2.181-2.181V81.563H79.87a2.181,2.181,0,0,0,2.181-2.181V75.329a2.181,2.181,0,0,0-2.181-2.181H76.912Z" transform="translate(-4.05 -4.348)" fill="#fff"/>
              <path id="Caminho_223" data-name="Caminho 223" d="M19.179,14.977v2.546a1.713,1.713,0,0,1-1.7,1.7h-2.5a14.883,14.883,0,0,0-10.3,4.119A31.508,31.508,0,0,1,23.3,4.68a14.883,14.883,0,0,0-4.119,10.3ZM2.742,4.952A2.209,2.209,0,0,1,4.951,2.743H20.724A34.026,34.026,0,0,0,2.742,20.724ZM84,78.142V57.9a3.257,3.257,0,0,0-3.248-3.248H78.881a1.376,1.376,0,1,0,0,2.743h1.872a.505.505,0,0,1,.505.505V78.142a12.721,12.721,0,0,1-25.442,0V57.9a.505.505,0,0,1,.5-.505H72.45a1.376,1.376,0,1,0,0-2.743H70.017V4.952A4.952,4.952,0,0,0,65.065,0H4.951A4.952,4.952,0,0,0,0,4.952v51.08a1.376,1.376,0,0,0,2.743,0V34.119A12.169,12.169,0,0,1,14.911,21.95h2.546A4.446,4.446,0,0,0,21.9,17.5V14.977A12.169,12.169,0,0,1,34.072,2.808H65.065a2.218,2.218,0,0,1,2.218,2.209v49.7H56.313a3.248,3.248,0,0,0-3.239,3.248V78.142a15.446,15.446,0,0,0,6.685,12.722H4.951a2.209,2.209,0,0,1-2.209-2.209V62.444A1.376,1.376,0,1,0,0,62.435v26.21a4.952,4.952,0,0,0,4.952,4.961H65.065a5.046,5.046,0,0,0,1.245-.159,15.614,15.614,0,0,0,2.172.159h0A15.492,15.492,0,0,0,84,78.142Z" transform="translate(0)" fill="#fff"/>
            </g>
          </g>
        </g>
      </g>
    </g>
  </g>
</svg>
