<svg xmlns="http://www.w3.org/2000/svg" xmlns:xlink="http://www.w3.org/1999/xlink" width="137" height="137" viewBox="0 0 137 137">
  <defs>
    <linearGradient id="linear-gradient" x1="0.5" x2="0.5" y2="1" gradientUnits="objectBoundingBox">
      <stop offset="0" stop-color="#c20505"/>
      <stop offset="1" stop-color="#a0191d"/>
    </linearGradient>
    <clipPath id="clip-path">
      <rect id="Retângulo_46" data-name="Retângulo 46" width="93.27" height="100" fill="none"/>
    </clipPath>
  </defs>
  <g id="Grupo_100" data-name="Grupo 100" transform="translate(-206 -3732)">
    <circle id="Elipse_5" data-name="Elipse 5" cx="68.5" cy="68.5" r="68.5" transform="translate(206 3732)" fill="url(#linear-gradient)"/>
    <g id="Layer_2" data-name="Layer 2" transform="translate(228 3744)">
      <g id="Layer_1" data-name="Layer 1">
        <g id="NewGroupe3">
          <g id="NewGroup0-46">
            <path id="Caminho_194" data-name="Caminho 194" d="M17.82,67.31H37v2.33H17.82Zm-1,5.26H38a1.91,1.91,0,0,0,1.91-1.92V66.29A1.92,1.92,0,0,0,38,64.38H16.8a1.91,1.91,0,0,0-1.91,1.91v4.36a1.91,1.91,0,0,0,1.91,1.92Z" fill="#fff"/>
            <path id="Caminho_195" data-name="Caminho 195" d="M43.78,75.69H11A1.9,1.9,0,0,0,9.13,77.6V82A1.91,1.91,0,0,0,11,83.88H31a1.47,1.47,0,1,0,0-2.93H12V78.62H42.7V81H37.9a1.47,1.47,0,1,0,0,2.93h5.88A1.91,1.91,0,0,0,45.69,82V77.6a1.9,1.9,0,0,0-1.91-1.91Z" fill="#fff"/>
            <g id="Grupo_83" data-name="Grupo 83" clip-path="url(#clip-path)">
              <path id="Caminho_196" data-name="Caminho 196" d="M81.22,81.43H75.89a2.05,2.05,0,0,0-2,2V88.8H67.1V83.47a2.05,2.05,0,0,0-2-2H59.72V74.68h5.33a2.05,2.05,0,0,0,2-2V67.31h6.74v5.33a2.05,2.05,0,0,0,2,2h5.33v6.75Zm.88-9.68H76.77V66.42a2,2,0,0,0-2-2H66.21a2,2,0,0,0-2,2v5.33H58.84a2.05,2.05,0,0,0-2.05,2v8.51a2.05,2.05,0,0,0,2.05,2h5.33v5.33a2,2,0,0,0,2,2h8.52a2,2,0,0,0,2-2V84.36H82.1a2.05,2.05,0,0,0,2.05-2V73.8a2.05,2.05,0,0,0-2.05-2Z" fill="#fff"/>
              <path id="Caminho_197" data-name="Caminho 197" d="M90.34,56.11h-9a1.47,1.47,0,1,0,0,2.93h7.14v38H4.8V59H74.49a1.47,1.47,0,0,0,0-2.93H2.93v-3.9H90.34v3.9ZM56.41,13.46v.28A14.7,14.7,0,0,1,53.22,8.5a1.46,1.46,0,0,0-2.69-.14c-1.68,3.44-5.18,7.56-9.54,7.82h-.9a3.12,3.12,0,0,1-2.17-1,.52.52,0,0,0-.1-.11,3.15,3.15,0,0,1-.73-1.79,9.69,9.69,0,1,1,19.32.18Zm0,18.18h-3v-2.2a12.24,12.24,0,0,0,3-3.22ZM51.3,27.39a1.13,1.13,0,0,0-.31.21,8.65,8.65,0,0,1-4.24,1.59,8.59,8.59,0,0,1-4.23-1.59,1.3,1.3,0,0,0-.31-.21c-1.8-1.28-3.35-3.14-3.5-5.27l-.24-3.23a7.71,7.71,0,0,0,2.7.21c4.49-.27,8.17-3.5,10.5-6.91a16,16,0,0,0,3.45,4.39l.08.07-.4,5.47c-.16,2.13-1.71,4-3.5,5.27ZM46.75,40l-5-5.71A2.37,2.37,0,0,0,43,32.23V31.17a9.65,9.65,0,0,0,3.74.95,9.65,9.65,0,0,0,3.75-.95v1.06a2.36,2.36,0,0,0,1.26,2.08l-5,5.71Zm-6.67-8.38h-3v-5.4a12.24,12.24,0,0,0,3,3.22v2.2ZM91.4,98.53V58.94a2.56,2.56,0,0,0,1.87-2.47V51.84a2.57,2.57,0,0,0-2.57-2.56H69.34v-10a7.61,7.61,0,0,0-7.61-7.61H59.35V13.46a12.62,12.62,0,1,0-25.18,0V31.64h-2.4a7.61,7.61,0,0,0-7.6,7.61v1.2a1.47,1.47,0,1,0,2.93,0v-1.2a4.68,4.68,0,0,1,4.67-4.68h6.32c2.32,2.68,7.51,8.57,7.56,8.64a1.47,1.47,0,0,0,2.2,0c.06-.07,5.24-6,7.57-8.64h6.31a4.69,4.69,0,0,1,4.68,4.68v10H62V43.6a1.47,1.47,0,0,0-2.93,0v5.68H34.48V43.6a1.47,1.47,0,0,0-2.93,0v5.68H27.1v-2a1.47,1.47,0,0,0-2.93,0v2H2.57A2.57,2.57,0,0,0,0,51.84v4.63a2.56,2.56,0,0,0,1.87,2.47V98.53A1.47,1.47,0,0,0,3.34,100H89.93A1.47,1.47,0,0,0,91.4,98.53Z" fill="#fff"/>
            </g>
          </g>
        </g>
      </g>
    </g>
  </g>
</svg>
