<svg xmlns="http://www.w3.org/2000/svg" xmlns:xlink="http://www.w3.org/1999/xlink" width="137" height="137" viewBox="0 0 137 137">
  <defs>
    <linearGradient id="linear-gradient" x1="0.5" x2="0.5" y2="1" gradientUnits="objectBoundingBox">
      <stop offset="0" stop-color="#c20505"/>
      <stop offset="1" stop-color="#a0191d"/>
    </linearGradient>
  </defs>
  <g id="Grupo_99" data-name="Grupo 99" transform="translate(-978 -3732)">
    <circle id="Elipse_6" data-name="Elipse 6" cx="68.5" cy="68.5" r="68.5" transform="translate(978 3732)" fill="url(#linear-gradient)"/>
    <g id="Layer_2" data-name="Layer 2" transform="translate(1000.73 3770.821)">
      <g id="Layer_1" data-name="Layer 1">
        <g id="NewGroupe26">
          <g id="NewGroup0-23">
            <path id="Caminho_198" data-name="Caminho 198" d="M97.07,47.51h-4.3V44.23h4.3Zm-76,8.93a7.9,7.9,0,1,1,7.73-9.52h0a7.91,7.91,0,0,1-7.74,9.48ZM93.53,34.65h-2V32.92h1.69c.11.59.13.69.32,1.73Zm4.53,6.65h-.33c-.29-1.57-2.06-11.21-2.28-12.45A3.55,3.55,0,0,0,92,26H87L81.63,9.39A3.86,3.86,0,0,0,78,6.72H65.87a1.47,1.47,0,1,0,0,2.93H78a.93.93,0,0,1,.89.64l5.7,17.57a1.47,1.47,0,0,0,1.4,1h6a.6.6,0,0,1,.6.5l.11.61H91.24a2.65,2.65,0,0,0-2.65,2.65V34.9a2.66,2.66,0,0,0,2.65,2.66h2.83l.68,3.72h-3a1.94,1.94,0,0,0-1.94,1.94v1.94H89a10.83,10.83,0,0,0-20.59,0H53.56L53.51,9.65H59a1.47,1.47,0,1,0,0-2.93H53.51V1.46A1.46,1.46,0,0,0,52,0H1.46A1.47,1.47,0,0,0,0,1.46V23.91a1.47,1.47,0,0,0,2.93,0v-21H50.57c0,15.34,0-10.89.06,42.25H31.4a10.83,10.83,0,0,0-20.59,0H2.93V30.74a1.47,1.47,0,0,0-2.93,0v15.9a1.47,1.47,0,0,0,1.46,1.47h8.82a10.83,10.83,0,1,0,21.65,0H67.88A10.83,10.83,0,0,0,83,58.47a1.47,1.47,0,1,0-1.17-2.69,7.82,7.82,0,0,1-3.16.66,7.9,7.9,0,1,1,7.73-9.52h0a7.89,7.89,0,0,1-.5,4.74,1.464,1.464,0,1,0,2.68,1.18,10.66,10.66,0,0,0,.9-4.77h.32v.39a1.94,1.94,0,0,0,1.94,1.94h6.28A1.94,1.94,0,0,0,100,48.5V43.24a1.94,1.94,0,0,0-1.94-1.94Z" fill="#fff"/>
            <path id="Caminho_199" data-name="Caminho 199" d="M21.11,50.73a2.19,2.19,0,1,1,2.18-2.19,2.19,2.19,0,0,1-2.18,2.19Zm0-7.31a5.12,5.12,0,1,0,5.11,5.12,5.12,5.12,0,0,0-5.11-5.12Z" fill="#fff"/>
            <path id="Caminho_200" data-name="Caminho 200" d="M59.07,27V14.78H74.9l4,12.19Zm23.19,1-4.9-15.12a1.47,1.47,0,0,0-1.39-1H57.6a1.46,1.46,0,0,0-1.46,1.46V28.43A1.46,1.46,0,0,0,57.6,29.9H80.87A1.46,1.46,0,0,0,82.26,28Z" fill="#fff"/>
            <path id="Caminho_201" data-name="Caminho 201" d="M80.88,48.54a2.19,2.19,0,1,1-2.18-2.19A2.19,2.19,0,0,1,80.88,48.54Zm-7.3,0a5.12,5.12,0,1,0,5.12-5.12A5.12,5.12,0,0,0,73.58,48.54Z" fill="#fff"/>
            <path id="Caminho_202" data-name="Caminho 202" d="M60.59,32.32a1.47,1.47,0,0,0,0,2.93h5.28a1.47,1.47,0,0,0,0-2.93Z" fill="#fff"/>
            <path id="Caminho_203" data-name="Caminho 203" d="M16.56,11.88a4.59,4.59,0,0,1,6.5,0L29,17.81l-6.5,6.51-5.94-5.94a4.59,4.59,0,0,1,0-6.5ZM38.35,29.07a4.6,4.6,0,0,1-7.85,3.25l-5.93-5.93,6.5-6.5L37,25.82a4.56,4.56,0,0,1,1.35,3.25Zm-9.92,5.32A7.53,7.53,0,0,0,39.08,23.75L25.14,9.81A7.53,7.53,0,0,0,14.49,20.45L28.43,34.39Z" fill="#fff"/>
          </g>
        </g>
      </g>
    </g>
  </g>
</svg>
