<svg xmlns="http://www.w3.org/2000/svg" xmlns:xlink="http://www.w3.org/1999/xlink" width="137" height="137" viewBox="0 0 137 137">
  <defs>
    <linearGradient id="linear-gradient" x1="0.5" x2="0.5" y2="1" gradientUnits="objectBoundingBox">
      <stop offset="0" stop-color="#c20505"/>
      <stop offset="1" stop-color="#a0191d"/>
    </linearGradient>
  </defs>
  <g id="Grupo_97" data-name="Grupo 97" transform="translate(-206 -3335)">
    <circle id="Elipse_2" data-name="Elipse 2" cx="68.5" cy="68.5" r="68.5" transform="translate(206 3335)" fill="url(#linear-gradient)"/>
    <g id="Layer_2" data-name="Layer 2" transform="translate(233.053 3355.053)">
      <g id="Layer_1" data-name="Layer 1">
        <g id="NewGroupe30">
          <g id="NewGroup0-19">
            <path id="Caminho_209" data-name="Caminho 209" d="M27,58.32a1.47,1.47,0,0,0-2.07,0l-3.45,3.45L6.83,47.15A13.3,13.3,0,1,1,25.64,28.34L40.26,43,29.73,53.49a1.45,1.45,0,0,0,0,2.07,1.47,1.47,0,0,0,2.07,0L43.37,44a1.47,1.47,0,0,0,0-2.07L27.71,26.27a16.263,16.263,0,1,0-23,23l15.7,15.61a1.47,1.47,0,0,0,2.07,0L27,60.39a1.45,1.45,0,0,0,0-2.07Z" fill="#fff"/>
            <path id="Caminho_210" data-name="Caminho 210" d="M52.39,43.37a1.47,1.47,0,0,0,2.07,0L70.11,27.71a16.263,16.263,0,0,0-23-23l-5.41,5.4a1.471,1.471,0,1,0,2.08,2.08l5.41-5.41A13.318,13.318,0,1,1,68,25.64L53.42,40.26,34.61,21.44,39,17.07A1.471,1.471,0,0,0,36.91,15L31.5,20.41a1.47,1.47,0,0,0,0,2.07Z" fill="#fff"/>
            <path id="Caminho_211" data-name="Caminho 211" d="M68.7,76.89H61.28a1.47,1.47,0,0,0-2.92.18v.6a2.15,2.15,0,0,0,2.15,2.15H68.7a.2.2,0,0,1,.2.2v6.32a.19.19,0,0,1-.2.19H60.51a2.15,2.15,0,0,0-2.15,2.15v8.2a.2.2,0,0,1-.19.19H51.84a.2.2,0,0,1-.19-.19v-8.2a2.15,2.15,0,0,0-2.15-2.15H41.31a.19.19,0,0,1-.2-.19V80a.2.2,0,0,1,.2-.2H49.5a2.14,2.14,0,0,0,2.15-2.14v-8.2a.2.2,0,0,1,.19-.2h6.33a.2.2,0,0,1,.19.2v.76a1.47,1.47,0,0,0,2.93,0v-.76a3.12,3.12,0,0,0-3.12-3.12H51.84a3.12,3.12,0,0,0-3.12,3.12v7.41H41.31A3.13,3.13,0,0,0,38.18,80v6.32a3.13,3.13,0,0,0,3.13,3.12h7.41v7.42A3.12,3.12,0,0,0,51.84,100h6.33a3.12,3.12,0,0,0,3.12-3.12V89.46H68.7a3.13,3.13,0,0,0,3.13-3.12V80a3.13,3.13,0,0,0-3.13-3.13Z" fill="#fff"/>
            <path id="Caminho_212" data-name="Caminho 212" d="M47.59,53.36a1.9,1.9,0,1,1-1.9-1.9A1.9,1.9,0,0,1,47.59,53.36Zm-6.72,0a4.83,4.83,0,1,0,4.82-4.82,4.83,4.83,0,0,0-4.82,4.82Z" fill="#fff"/>
            <path id="Caminho_213" data-name="Caminho 213" d="M28.1,78A1.9,1.9,0,1,1,30,76.14,1.9,1.9,0,0,1,28.1,78Zm0-6.72a4.83,4.83,0,1,0,4.83,4.83,4.83,4.83,0,0,0-4.83-4.83Z" fill="#fff"/>
            <path id="Caminho_214" data-name="Caminho 214" d="M38.76,68.59a1.9,1.9,0,1,1,1.9,1.9,1.9,1.9,0,0,1-1.9-1.9Zm6.72,0a4.83,4.83,0,1,0-4.82,4.83,4.83,4.83,0,0,0,4.82-4.83Z" fill="#fff"/>
            <path id="Caminho_215" data-name="Caminho 215" d="M38.86,59a1.47,1.47,0,1,1-1.47-1.46A1.47,1.47,0,0,1,38.86,59Z" fill="#fff"/>
            <path id="Caminho_216" data-name="Caminho 216" d="M31,66.69a1.47,1.47,0,1,1-1.46-1.46A1.47,1.47,0,0,1,31,66.69Z" fill="#fff"/>
            <path id="Caminho_217" data-name="Caminho 217" d="M35.66,82.47a1.465,1.465,0,1,1,0-.01Z" fill="#fff"/>
          </g>
        </g>
      </g>
    </g>
  </g>
</svg>
