<svg xmlns="http://www.w3.org/2000/svg" xmlns:xlink="http://www.w3.org/1999/xlink" width="137" height="137" viewBox="0 0 137 137">
  <defs>
    <linearGradient id="linear-gradient" x1="0.5" x2="0.5" y2="1" gradientUnits="objectBoundingBox">
      <stop offset="0" stop-color="#c20505"/>
      <stop offset="1" stop-color="#a0191d"/>
    </linearGradient>
    <clipPath id="clip-path">
      <rect id="Retângulo_47" data-name="Retângulo 47" width="75.53" height="100" fill="none"/>
    </clipPath>
  </defs>
  <g id="Grupo_98" data-name="Grupo 98" transform="translate(-978 -3335)">
    <circle id="Elipse_3" data-name="Elipse 3" cx="68.5" cy="68.5" r="68.5" transform="translate(978 3335)" fill="url(#linear-gradient)"/>
    <g id="Layer_2" data-name="Layer 2" transform="translate(1008 3354)">
      <g id="Layer_1" data-name="Layer 1">
        <g id="NewGroupe33">
          <g id="NewGroup0-16">
            <g id="Grupo_84" data-name="Grupo 84" clip-path="url(#clip-path)">
              <path id="Caminho_207" data-name="Caminho 207" d="M29.18,53.58h4a2.2,2.2,0,0,0,2.19-2.2v-4H40.1v4a2.2,2.2,0,0,0,2.19,2.2h4v4.73h-4A2.19,2.19,0,0,0,40.1,60.5v4H35.4v-4a2.2,2.2,0,0,0-2.19-2.19h-4V53.58Zm-.73,7.66h4v4a2.19,2.19,0,0,0,2.19,2.19h6.21a2.19,2.19,0,0,0,2.19-2.19v-4h4A2.2,2.2,0,0,0,49.27,59V52.8a2.19,2.19,0,0,0-2.19-2.19h-4v-4a2.2,2.2,0,0,0-2.19-2.2H34.66a2.2,2.2,0,0,0-2.19,2.2v4h-4a2.2,2.2,0,0,0-2.2,2.19V59a2.21,2.21,0,0,0,2.2,2.2Z" fill="#fff"/>
              <path id="Caminho_208" data-name="Caminho 208" d="M60.61,97.07H14.92a.47.47,0,0,1-.48-.47,22.63,22.63,0,0,1,8.12-17.39A4.52,4.52,0,0,0,22,71.87,30.46,30.46,0,0,1,7.07,45.53V39.09H11.5a1.47,1.47,0,0,0,0-2.93H3.56a.63.63,0,0,1-.63-.62V32.17a.63.63,0,0,1,.63-.63H72a.63.63,0,0,1,.63.63v3.37h0a.63.63,0,0,1-.63.62H18.33a1.47,1.47,0,0,0,0,2.93H68.46v6.44A30.47,30.47,0,0,1,53.52,71.87,4.52,4.52,0,0,0,53,79.21,22.63,22.63,0,0,1,61.09,96.6a.47.47,0,0,1-.48.47ZM60,4a2.22,2.22,0,0,1,3-.81L71.1,7.9a2.22,2.22,0,1,1-2.22,3.84L60.8,7.07A2.21,2.21,0,0,1,60,4Zm4,92.6A25.55,25.55,0,0,0,54.85,77,1.58,1.58,0,0,1,55,74.39,33.63,33.63,0,0,0,71.39,45.53V39.09H72a3.56,3.56,0,0,0,3.56-3.55V32.17A3.57,3.57,0,0,0,72,28.61H61.2L63,25.15a1.47,1.47,0,0,0-2.59-1.38l-2.56,4.84H49.44L60.82,10.47l5.11,2.95-2.28,4.31a1.47,1.47,0,1,0,2.59,1.37l2.3-4.34a5.15,5.15,0,0,0,4-9.4L64.49.69a5.152,5.152,0,0,0-6.13,8.19L46,28.61H35.9a13.85,13.85,0,0,0-2.83-15.56,25.21,25.21,0,0,0-6.28-4.19,1.47,1.47,0,1,0-1.3,2.63A22,22,0,0,1,31,15.12a10.86,10.86,0,0,1,1.56,13.49h-1l-.32-.31V18.4a1.47,1.47,0,0,0-2.93,0v7L23.89,21V15.5a1.47,1.47,0,1,0-2.93,0V18l-4.81-4.81a1.47,1.47,0,0,0-2.08,2.07l1.43,1.43H14.16a1.47,1.47,0,0,0,0,2.93h4.27l4.05,4.05H18.16a1.47,1.47,0,0,0,0,2.93h7.25l2,2H14.71A38,38,0,0,1,9.57,17.44c-1.41-5-1.16-8.14-.29-9s4.44-1.15,10,.6a1.47,1.47,0,1,0,.88-2.8C16.54,5.08,10,3.58,7.21,6.35c-2.46,2.46-1.6,7.82-.46,11.88A44,44,0,0,0,11.2,28.61H3.56A3.57,3.57,0,0,0,0,32.17v3.37a3.56,3.56,0,0,0,3.56,3.55h.58v6.44A33.62,33.62,0,0,0,20.5,74.39,1.58,1.58,0,0,1,20.68,77a25.55,25.55,0,0,0-9.17,19.6,3.41,3.41,0,0,0,3.41,3.4H60.61A3.41,3.41,0,0,0,64,96.6Z" fill="#fff"/>
            </g>
          </g>
        </g>
      </g>
    </g>
  </g>
</svg>
