<svg xmlns="http://www.w3.org/2000/svg" xmlns:xlink="http://www.w3.org/1999/xlink" width="137" height="137" viewBox="0 0 137 137">
  <defs>
    <linearGradient id="linear-gradient" x1="0.5" x2="0.5" y2="1" gradientUnits="objectBoundingBox">
      <stop offset="0" stop-color="#c20505"/>
      <stop offset="1" stop-color="#a0191d"/>
    </linearGradient>
  </defs>
  <g id="Grupo_101" data-name="Grupo 101" transform="translate(-206 -4135)">
    <circle id="Elipse_4" data-name="Elipse 4" cx="68.5" cy="68.5" r="68.5" transform="translate(206 4135)" fill="url(#linear-gradient)"/>
    <g id="Layer_2" data-name="Layer 2" transform="translate(242.805 4150.005)">
      <g id="Layer_1" data-name="Layer 1">
        <g id="NewGroupe19">
          <g id="NewGroup0-30">
            <path id="Caminho_204" data-name="Caminho 204" d="M64.73,97.07H2.93v-2.6a.91.91,0,0,1,.91-.91H63.82a.91.91,0,0,1,.91.91ZM31.36,74.71h8.11A1.47,1.47,0,0,0,40,74.6a16.16,16.16,0,0,0-.4-32.14V39.94a1.47,1.47,0,1,0-2.93,0v2.45H31.36v-10a7.54,7.54,0,0,0,5.34-4.16V33.1a1.47,1.47,0,0,0,2.93,0V27.75A32.11,32.11,0,0,1,45,87.24l-.66-6.71a5.09,5.09,0,0,0-10.13,0l-1,10c-.85.07-1.66.1-1.86.1V74.71ZM16.58,77.45a.58.58,0,0,1-.58-.57V75.29a.58.58,0,0,1,.58-.58H28.43v2.74ZM28.43,47.06H20.65V45.32h7.78ZM24.51,52H19.92V50h4.59Zm-4.59,7.23v-4.3h4.59v4.3Zm-6.41-6.64H10.78V50h2.73v2.55ZM6.57,45.32H17.72v1.74H6.57ZM25.29,25a4.6,4.6,0,1,1,1.344,3.259A4.61,4.61,0,0,1,25.29,25ZM42.38,90.63H36.16l1-9.81a2.15,2.15,0,0,1,4.29,0c.27,2.78.64,6.55,1,9.81ZM19.74,10.91V9.11h5v1.8Zm0-8h5V6.18h-5V2.93Zm44.08,87.7H45.32v-.29a35,35,0,0,0-7.9-66.15,7.55,7.55,0,0,0-6-6.59V12.37a1.47,1.47,0,0,0-1.47-1.46H27.62V9.11H28a1.47,1.47,0,1,0,0-2.93h-.37V2.93h.27A1.47,1.47,0,1,0,27.9,0H16.54a1.47,1.47,0,0,0,0,2.93h.28V6.18h-.38a1.47,1.47,0,0,0,0,2.93h.38v1.8H14.54a1.47,1.47,0,0,0-1.47,1.46v6.81a1.47,1.47,0,1,0,2.93,0V13.84H28.43V17.6a7.53,7.53,0,0,0,0,14.78v10H16V26a1.47,1.47,0,1,0-2.93,0V42.39H5.68a2,2,0,0,0-2,2V47.9a2,2,0,0,0,2,2.05H7.85v3.23a2.25,2.25,0,0,0,2.25,2.25h4.09a2.25,2.25,0,0,0,2.25-2.25V50H17v9.88a2.24,2.24,0,0,0,2.25,2.24h6a2.24,2.24,0,0,0,2.25-2.24V50h1.43a2.5,2.5,0,0,0,2.49-2.49V45.32h6.81A13.23,13.23,0,0,1,41,71.49V68.18a2.32,2.32,0,0,0-2.32-2.32H17a1.47,1.47,0,1,0,0,2.93H38v3H6.42v-3h3.72a1.47,1.47,0,1,0,0-2.93H5.82A2.32,2.32,0,0,0,3.5,68.18v4.21a2.32,2.32,0,0,0,2.32,2.32h7.31a11.8,11.8,0,0,0-.06,2.17,3.51,3.51,0,0,0,3.51,3.5H28.43V90.63H3.84A3.84,3.84,0,0,0,0,94.47v4.07A1.47,1.47,0,0,0,1.46,100H66.2a1.46,1.46,0,0,0,1.46-1.46V94.47a3.84,3.84,0,0,0-3.84-3.84Z" fill="#fff"/>
            <path id="Caminho_205" data-name="Caminho 205" d="M44.59,38.47a1,1,0,1,1,1-1A1,1,0,0,1,44.59,38.47Zm0-5a4,4,0,1,0,4,4A4,4,0,0,0,44.59,33.47Z" fill="#fff"/>
            <path id="Caminho_206" data-name="Caminho 206" d="M31.36,25A1.47,1.47,0,1,1,29.9,23.651,1.47,1.47,0,0,1,31.36,25Z" fill="#fff"/>
          </g>
        </g>
      </g>
    </g>
  </g>
</svg>
