<svg id="Layer_1" data-name="Layer 1" xmlns="http://www.w3.org/2000/svg" width="174.33" height="167.19" viewBox="0 0 174.33 167.19">
  <path id="Caminho_1" data-name="Caminho 1" d="M22.888,32.567Q20.059,27.51,18.8,25.706h0c1.225.829,3.479,2.181,6.871,4.083ZM15,25.024l8.721,16.635,2.817-2.84-2.021-3.656,3.846-3.875L32.037,33.3l2.976-3L18.258,21.77Z" transform="translate(3.372 4.761)" fill="#a8a8a8"/>
  <path id="Caminho_2" data-name="Caminho 2" d="M31.049,15.838l.514-.329q2.646-1.682,4.079.561T34.54,20.1l-.5.317Zm-4.9-.451,9.615,15.075,3.442-2.194-3.442-5.411.576-.366a7.579,7.579,0,0,0,3.491-4.034,5.3,5.3,0,0,0-.784-4.57c-1.225-1.828-2.535-2.73-4.091-2.718a11.99,11.99,0,0,0-5.891,2.23Z" transform="translate(5.879 2.443)" fill="#a8a8a8"/>
  <path id="Caminho_3" data-name="Caminho 3" d="M47.653,7.106a2.827,2.827,0,0,1,2.952.731,9.739,9.739,0,0,1,2.45,4.18,8.9,8.9,0,0,1,.588,4.509,2.808,2.808,0,0,1-4.8,1.657,9.131,9.131,0,0,1-2.352-3.924A9.7,9.7,0,0,1,45.8,9.519a2.829,2.829,0,0,1,1.849-2.413Zm-.943-2.84a6.807,6.807,0,0,0-4.5,4.29,10.637,10.637,0,0,0,.331,7.129,10.179,10.179,0,0,0,4.115,5.63,6.926,6.926,0,0,0,6.124.463,6.894,6.894,0,0,0,4.52-4.168,10.492,10.492,0,0,0-.355-7.117A10.447,10.447,0,0,0,52.81,4.8a6.815,6.815,0,0,0-6.1-.536Z" transform="translate(9.387 0.828)" fill="#a8a8a8"/>
  <path id="Caminho_4" data-name="Caminho 4" d="M57.15,1.546l.367,3.1,3.932-.524L63.225,18.8l4.042-.487L65.479,3.63,69.4,3.215l-.38-3.1Z" transform="translate(12.849 0.026)" fill="#a8a8a8"/>
  <path id="Caminho_5" data-name="Caminho 5" d="M86.674,1.267,82.62.865l-.7,7.056-4.814-.475.7-7.056L73.814,0,72.05,17.78l3.993.39.747-7.556,4.814.475-.747,7.556,4.042.4Z" transform="translate(16.199)" fill="#a8a8a8"/>
  <path id="Caminho_6" data-name="Caminho 6" d="M92.447,2.76l-5.6,16.976,10.1,3.29.968-2.937-6.283-2.047,1.409-4.265L98.6,15.593l.943-2.876-5.548-1.8,1.311-4,5.916,1.938.968-2.925Z" transform="translate(19.526 0.604)" fill="#a8a8a8"/>
  <path id="Caminho_7" data-name="Caminho 7" d="M106.441,18.283h0q-.318,2.754-.318,9.847l4.177,2.437-.184-11.212,9.076-4.363-4.066-2.376q-5.7,3.108-7.814,4.46h0l3.87-6.7L107.666,8.29,98.59,23.706l3.5,2.035Z" transform="translate(22.166 1.813)" fill="#a8a8a8"/>
  <path id="Caminho_8" data-name="Caminho 8" d="M122.727,17.84,110.54,30.965l7.8,7.178,2.107-2.279L115.6,31.4l3.05-3.29,4.3,3.936,2.058-2.218-4.3-3.936,2.866-3.083,4.581,4.2,2.094-2.255Z" transform="translate(24.853 3.901)" fill="#a8a8a8"/>
  <path id="Caminho_9" data-name="Caminho 9" d="M106.006,87.592V44.939L84.044,29.62,57.368,42.83V66.79H48V86.142h9.37V99.158l-6.124-4.265L40.22,110.613l22.806,15.843,13.767-19.109v-21.2H87.082V100.9l16.425,11.456,12.628-17.817ZM87.082,66.79H76.793V46.962l10.289,7.19Z" transform="translate(9.043 6.477)" fill="#a8a8a8"/>
  <path id="Caminho_10" data-name="Caminho 10" d="M3.9,76.86l.184,1.377,4.2-.561.478,3.51,1.151-.158-.478-3.51,3.038-.4.5,3.656,1.164-.158-.686-5.033Z" transform="translate(0.877 16.527)" fill="#a8a8a8"/>
  <path id="Caminho_11" data-name="Caminho 11" d="M12.656,86.36,9.949,88.371l-.968-3.656,3.368.353h1.862l-.367.244-.429.28-.4.292a2.889,2.889,0,0,0-.355.475ZM7.279,92.185l8.243-6.471-.38-1.377L4.78,82.85l.38,1.4,2.609.341,1.2,4.533L6.874,90.71Z" transform="translate(1.075 18.117)" fill="#a8a8a8"/>
  <path id="Caminho_12" data-name="Caminho 12" d="M13.5,93.23l2.768-1.158.257.609a9.463,9.463,0,0,1,.38,1.06,2.851,2.851,0,0,1,.135.853,1.215,1.215,0,0,1-.22.646,1.359,1.359,0,0,1-.612.451,1.23,1.23,0,0,1-1.36-.183,4.434,4.434,0,0,1-1.09-1.67Zm3.295-2.9L7.91,94.059l.551,1.292,3.968-1.67.159.378a6.28,6.28,0,0,1,.294.829,1.807,1.807,0,0,1,0,.609,1.142,1.142,0,0,1-.2.512,3.537,3.537,0,0,1-.429.536l-2.3,2.437.6,1.426,2.6-2.852a2.924,2.924,0,0,0,.563-.829,1.82,1.82,0,0,0,.147-.9h0a3.722,3.722,0,0,0,.6.695,2.267,2.267,0,0,0,.686.463,1.857,1.857,0,0,0,.772.158,2.116,2.116,0,0,0,.857-.195,2.29,2.29,0,0,0,.992-.695,1.9,1.9,0,0,0,.429-.987,3.359,3.359,0,0,0-.061-1.219,8.5,8.5,0,0,0-.478-1.475Z" transform="translate(1.778 19.753)" fill="#a8a8a8"/>
  <path id="Caminho_13" data-name="Caminho 13" d="M17,104.6l3.956-5.252L19.73,97.43l-8.17,5.082.7,1.121,5.414-3.364.367-.232.5-.317.539-.341.5-.341h0c-.1.11-.208.232-.331.39l-.38.463c-.135.171-.245.317-.367.451l-.269.366-4.262,5.642.71,1.133,7.214-1.377.906-.183,1.041-.232h0l-.527.3-.539.329-.514.317-.367.232-5.438,3.437.71,1.121,8.157-5.082L24.1,104.474l-6.455,1.341-.441.1-.551.122-.6.146-.514.146h0l.343-.4.4-.463c.135-.146.245-.3.355-.439Z" transform="translate(2.599 21.305)" fill="#a8a8a8"/>
  <path id="Caminho_14" data-name="Caminho 14" d="M29.244,109.2h2.621l-.992-1.109-2.254.463ZM26.7,111.807l-1.531,3.022-2.45-2.8,3.172-1.219.38-.146.465-.183.478-.195.4-.171h0l-.22.378-.245.451-.245.439Zm-2.168,7.617L29,109.918l-.955-1.072-9.933,3.327.992,1.109,2.45-.865,3.111,3.461-1.151,2.364Z" transform="translate(4.072 23.637)" fill="#a8a8a8"/>
  <path id="Caminho_15" data-name="Caminho 15" d="M35.5,118.5l.943-.9a4.374,4.374,0,0,0-.6-.89,8.27,8.27,0,0,0-.808-.792,5.739,5.739,0,0,0-1.776-1.036,5.119,5.119,0,0,0-1.886-.292,4.537,4.537,0,0,0-1.837.5,4.9,4.9,0,0,0-1.58,1.219,5.453,5.453,0,0,0-1.09,1.865,4.379,4.379,0,0,0-.2,1.889,4.725,4.725,0,0,0,.637,1.779,6.5,6.5,0,0,0,1.384,1.609,8.878,8.878,0,0,0,.919.67,4.307,4.307,0,0,0,.931.451l.772-1.048a3.82,3.82,0,0,1-1-.427,5.868,5.868,0,0,1-.821-.573,4.2,4.2,0,0,1-.968-1.219,3.558,3.558,0,0,1-.416-1.341,3.639,3.639,0,0,1,.171-1.389,4.277,4.277,0,0,1,1.96-2.291,3.319,3.319,0,0,1,1.323-.4,3.827,3.827,0,0,1,1.372.171,4.387,4.387,0,0,1,2.548,2.437Z" transform="translate(5.989 25.057)" fill="#a8a8a8"/>
  <rect id="Retângulo_1" data-name="Retângulo 1" width="9.607" height="1.406" transform="matrix(0.57, -0.822, 0.822, 0.57, 39.442, 151.923)" fill="#a8a8a8"/>
  <path id="Caminho_16" data-name="Caminho 16" d="M43.455,124.863l-.4,3.364-3.27-1.779,2.572-2.194a4.017,4.017,0,0,1,.318-.268l.38-.329.4-.366a3.882,3.882,0,0,0,.318-.3h0a1.631,1.631,0,0,1-.073.439,1.077,1.077,0,0,1-.086.512c-.086.171,0,.341-.073.487a2.706,2.706,0,0,0-.086.439Zm.576,7.9.906-10.407-1.225-.682-8.182,6.5,1.311.695,2.021-1.657,4.115,2.181-.269,2.608Z" transform="translate(7.988 26.606)" fill="#a8a8a8"/>
  <path id="Caminho_17" data-name="Caminho 17" d="M50.918,134.348l2.058-6.946.5.146a9.756,9.756,0,0,1,1.69.658,3.672,3.672,0,0,1,1.225.951,2.7,2.7,0,0,1,.6,1.328,4.075,4.075,0,0,1-.184,1.816A3.93,3.93,0,0,1,56,133.848a2.978,2.978,0,0,1-1.225.8,4.025,4.025,0,0,1-1.556.183,9.1,9.1,0,0,1-1.825-.28Zm3.05-7.873-2.021-.585-2.707,9.2,2.009.585a9.376,9.376,0,0,0,2.241.378,5.353,5.353,0,0,0,2.009-.293,4.313,4.313,0,0,0,1.617-1.072,4.734,4.734,0,0,0,1.066-1.95,5.057,5.057,0,0,0,.2-2.291,3.938,3.938,0,0,0-.759-1.779,5.125,5.125,0,0,0-1.543-1.316,9.088,9.088,0,0,0-2.107-.877Z" transform="translate(11.071 27.529)" fill="#a8a8a8"/>
  <path id="Caminho_18" data-name="Caminho 18" d="M64.291,138.47l.184-1.17-4.03-.622.49-3.169,3.65.561.171-1.133-3.638-.561.441-2.852,3.919.6.171-1.146-5.291-.817-1.47,9.469Z" transform="translate(13.24 28.025)" fill="#a8a8a8"/>
  <path id="Caminho_19" data-name="Caminho 19" d="M75.747,135.3l-2.731-6-2.266.146.6,9.567,1.323-.085-.392-6.325v-2.267h0a1.382,1.382,0,0,0,.184.475l.233.561c.086.183.159.366.22.524a3.346,3.346,0,0,0,.2.414l2.842,6.471,1.335-.085,2.156-6.9c.073-.219.159-.512.269-.865s.2-.707.294-1.036h0v2.267l.4,6.325,1.335-.085-.6-9.567-2.217.146-1.752,6.227a3.645,3.645,0,0,0-.135.427l-.159.561-.147.585-.122.512h0a2.06,2.06,0,0,0-.2-.5l-.208-.561c-.073-.183-.147-.366-.22-.524S75.8,135.409,75.747,135.3Z" transform="translate(15.907 28.174)" fill="#a8a8a8"/>
  <path id="Caminho_20" data-name="Caminho 20" d="M86.736,130.292l1.96,2.779-3.674.865.429-3.376v-1.84h0l.233.378.282.439.282.414A.977.977,0,0,1,86.736,130.292Zm5.72,5.521-6.3-8.372-1.4.329L83,138.042l1.445-.341.4-2.584,4.544-1.072,1.543,2.12Z" transform="translate(18.661 27.868)" fill="#a8a8a8"/>
  <path id="Caminho_21" data-name="Caminho 21" d="M96.555,124.157l1.862,4.692.294.695c.11.268.233.536.355.8s.233.536.343.78.2.451.269.6h0c-.257-.256-.551-.524-.857-.8l-.919-.792-5.291-4.4-1.911.78,3.674,8.884,1.225-.5-2.18-5.35-.257-.622a5.711,5.711,0,0,1-.294-.695c-.1-.232-.2-.439-.294-.646s-.171-.378-.233-.512h0c.233.232.527.512.87.8l1.017.865,5.414,4.509,1.69-.682-3.674-8.9Z" transform="translate(20.392 27.044)" fill="#a8a8a8"/>
  <rect id="Retângulo_2" data-name="Retângulo 2" width="1.407" height="9.602" transform="translate(121.4 149.009) rotate(-28.37)" fill="#a8a8a8"/>
  <path id="Caminho_22" data-name="Caminho 22" d="M106.486,123.693l-1.911-2.852.563-.366a6.535,6.535,0,0,1,.98-.561,2.767,2.767,0,0,1,.845-.232,1.34,1.34,0,0,1,.723.158,1.857,1.857,0,0,1,.6.6,2.006,2.006,0,0,1,.343.8,1.286,1.286,0,0,1-.135.707,2.354,2.354,0,0,1-.539.67,7.344,7.344,0,0,1-.894.682Zm-1.886-4.265-1.849,1.219,5.365,7.97,1.225-.78-2.143-3.193.674-.451a7.55,7.55,0,0,0,1.139-.9,3.657,3.657,0,0,0,.784-1.06,2.523,2.523,0,0,0,.22-1.219,2.625,2.625,0,0,0-.527-1.377,3.1,3.1,0,0,0-1.041-1.036,2.349,2.349,0,0,0-1.225-.268,3.689,3.689,0,0,0-1.225.317,9.5,9.5,0,0,0-1.4.78Z" transform="translate(23.101 25.875)" fill="#a8a8a8"/>
  <path id="Caminho_23" data-name="Caminho 23" d="M117.785,116.119l-3.564-4.009-1.053.926,3.466,3.912a7.862,7.862,0,0,1,.833,1.1,3.318,3.318,0,0,1,.441,1.048,1.844,1.844,0,0,1,0,1,2.438,2.438,0,0,1-.71.963,2.171,2.171,0,0,1-1.029.561,1.883,1.883,0,0,1-1,0,3.422,3.422,0,0,1-.992-.561,8.051,8.051,0,0,1-.98-.963l-3.479-3.912-1.053.926,3.564,4.022a8.553,8.553,0,0,0,1.225,1.219,3.682,3.682,0,0,0,1.372.658,2.744,2.744,0,0,0,1.47,0,4,4,0,0,0,1.58-.926,4.08,4.08,0,0,0,1-1.572,3.058,3.058,0,0,0,.294-1.45,3.642,3.642,0,0,0-.416-1.5,6.835,6.835,0,0,0-.968-1.438Z" transform="translate(24.43 24.516)" fill="#a8a8a8"/>
  <path id="Caminho_24" data-name="Caminho 24" d="M122.415,114.715l-6.357-5.545-.919,1.06,7.251,6.313,3.577-4.07-.894-.78Z" transform="translate(25.887 23.873)" fill="#a8a8a8"/>
  <path id="Caminho_25" data-name="Caminho 25" d="M123.832,103.806l3.332.707-2.094,3.12-1.947-2.754c-.073-.085-.159-.207-.245-.329s-.184-.268-.294-.414l-.306-.4a3.051,3.051,0,0,0-.269-.341h0l.429.11.5.134.49.11Zm7.961.158L121.456,102.1l-.8,1.219,5.757,8.726.821-1.219-1.47-2.157,2.584-3.863,2.584.5Z" transform="translate(27.128 22.327)" fill="#a8a8a8"/>
  <path id="Caminho_26" data-name="Caminho 26" d="M128.077,93.472l-1.115-.682a3.478,3.478,0,0,0-.723.8,8.448,8.448,0,0,0-.563.975,5.718,5.718,0,0,0-.563,1.974,5.07,5.07,0,0,0,.2,1.889,4.685,4.685,0,0,0,.906,1.633,5.044,5.044,0,0,0,1.6,1.219,5.459,5.459,0,0,0,1.825.548,4.143,4.143,0,0,0,3.123-.817,5.755,5.755,0,0,0,1.225-1.219l1.225.8a2.429,2.429,0,0,1,.1-.341l.086-.219a.952.952,0,0,1,.355-.427.467.467,0,0,1,.49,0,.512.512,0,0,1,.306.439,1.214,1.214,0,0,1-.147.573,3.25,3.25,0,0,1-.306.524l.478.3a3.908,3.908,0,0,0,.429-.695,2.2,2.2,0,0,0,.2-.585,1.443,1.443,0,0,0,0-.561,1.045,1.045,0,0,0-.2-.5,1.064,1.064,0,0,0-.453-.366.886.886,0,0,0-.87,0,1.4,1.4,0,0,0-.588.658l-.1.183v.158l-.686-.475.135-.232.135-.256A7.2,7.2,0,0,0,135,97.738a4.343,4.343,0,0,0,.208-1.024l-1.225-.475a4.513,4.513,0,0,1-.159,1.085,5.345,5.345,0,0,1-.355.926,4.084,4.084,0,0,1-.906,1.219,3.408,3.408,0,0,1-1.225.743,3.347,3.347,0,0,1-1.4.183,4,4,0,0,1-1.519-.414A4.066,4.066,0,0,1,127.2,99.1a3.287,3.287,0,0,1-.71-1.219,3.36,3.36,0,0,1-.184-1.365,3.727,3.727,0,0,1,.392-1.438A4.064,4.064,0,0,1,128.077,93.472Z" transform="translate(28.125 20.291)" fill="#a8a8a8"/>
  <path id="Caminho_27" data-name="Caminho 27" d="M126.945,85.35l-.208.646c.38.171.514.414.416.731l-.147.268a4.487,4.487,0,0,1-.343.439l-.392.512a2.1,2.1,0,0,0-.22.475,1.213,1.213,0,0,0,0,1.024,1.86,1.86,0,0,0,.931.756l.2-.622a.953.953,0,0,1-.392-.366.5.5,0,0,1,0-.4,1.338,1.338,0,0,1,.184-.341,6.353,6.353,0,0,1,.4-.512,3.275,3.275,0,0,0,.551-.914,1.116,1.116,0,0,0-.086-.951,1.9,1.9,0,0,0-.894-.743Zm4.679,3.3,3.393-.219L133.853,92l-2.633-2.12-.318-.256-.392-.317-.416-.3-.343-.256h1.47Zm7.692-2-10.448,1-.4,1.365,7.912,6.825.453-1.414-2.009-1.682,1.433-4.412,2.621-.219Z" transform="translate(28.314 18.664)" fill="#a8a8a8"/>
  <path id="Caminho_28" data-name="Caminho 28" d="M131.266,79.777a3.1,3.1,0,0,1,.465-1.219,2.714,2.714,0,0,1,.931-.853,3.515,3.515,0,0,1,1.323-.427,5.194,5.194,0,0,1,1.617,0,4.819,4.819,0,0,1,1.519.475,3.673,3.673,0,0,1,1.09.829,2.89,2.89,0,0,1,.686,2.437,3.123,3.123,0,0,1-.49,1.219,3.007,3.007,0,0,1-.931.865,3.613,3.613,0,0,1-1.311.439,5.182,5.182,0,0,1-1.617,0,5.077,5.077,0,0,1-1.507-.475,3.672,3.672,0,0,1-1.09-.841,2.908,2.908,0,0,1-.625-1.121A2.753,2.753,0,0,1,131.266,79.777Zm-1.078-.292a5.19,5.19,0,0,0,0,2,4.207,4.207,0,0,0,2.143,2.84,6.471,6.471,0,0,0,4.066.67,4.569,4.569,0,0,0,1.7-.67,4.274,4.274,0,0,0,1.225-1.292,5.363,5.363,0,0,0,.625-3.79,4.183,4.183,0,0,0-2.168-2.766,6.355,6.355,0,0,0-2.021-.658,5.761,5.761,0,0,0-2.046,0,4.3,4.3,0,0,0-1.69.658,3.934,3.934,0,0,0-1.225,1.219A4.761,4.761,0,0,0,130.188,79.485Z" transform="translate(29.248 16.559)" fill="#a8a8a8"/>
  <path id="Caminho_29" data-name="Caminho 29" d="M10.264,47a40.575,40.575,0,0,0,9.529,10.273,75.692,75.692,0,0,0-9.737,10.712,89.916,89.916,0,0,0-7.018-7.848C1.813,59.041.772,58.114,0,57.383A74.127,74.127,0,0,0,10.264,47" transform="translate(0 10.278)" fill="#a8a8a8"/>
  <path id="Caminho_30" data-name="Caminho 30" d="M136.445,47a41.014,41.014,0,0,0,9.529,10.273,77.261,77.261,0,0,0-9.8,10.712,89.917,89.917,0,0,0-7.018-7.848c-1.225-1.1-2.266-2.023-3.038-2.754A73.471,73.471,0,0,0,136.445,47" transform="translate(28.356 10.278)" fill="#a8a8a8"/>
</svg>
