<svg xmlns="http://www.w3.org/2000/svg" xmlns:xlink="http://www.w3.org/1999/xlink" width="321.835" height="73.007" viewBox="0 0 321.835 73.007">
  <defs>
    <linearGradient id="linear-gradient" x2="0.797" y2="0.885" gradientUnits="objectBoundingBox">
      <stop offset="0" stop-color="#c20505"/>
      <stop offset="1" stop-color="#a0191d"/>
    </linearGradient>
    <filter id="Caminho_93" x="0" y="0" width="73.001" height="73.007" filterUnits="userSpaceOnUse">
      <feOffset dy="3" input="SourceAlpha"/>
      <feGaussianBlur stdDeviation="3" result="blur"/>
      <feFlood flood-opacity="0" result="color"/>
      <feComposite operator="out" in="SourceGraphic" in2="blur"/>
      <feComposite operator="in" in="color"/>
      <feComposite operator="in" in2="SourceGraphic"/>
    </filter>
    <linearGradient id="linear-gradient-2" x1="0.609" x2="0.336" y2="0.783" xlink:href="#linear-gradient"/>
    <filter id="Caminho_94">
      <feOffset dy="3" input="SourceAlpha"/>
      <feGaussianBlur stdDeviation="3" result="blur-2"/>
      <feFlood flood-opacity="0.161" result="color-2"/>
      <feComposite operator="out" in="SourceGraphic" in2="blur-2"/>
      <feComposite operator="in" in="color-2"/>
      <feComposite operator="in" in2="SourceGraphic"/>
    </filter>
  </defs>
  <g id="Logo" transform="translate(-180.658 -87)">
    <g id="Symbol_Dark" data-name="Symbol Dark" transform="translate(180.658 87)">
      <g data-type="innerShadowGroup">
        <path id="Caminho_93-2" data-name="Caminho 93" d="M53.093,0H0V59.056L19.908,73.007H73V13.951ZM69.358,69.365H21.092L3.643,57.153V3.643H51.909l17.449,12.2Z" fill="url(#linear-gradient)"/>
        <g transform="matrix(1, 0, 0, 1, 0, 0)" filter="url(#Caminho_93)">
          <path id="Caminho_93-3" data-name="Caminho 93" d="M53.093,0H0V59.056L19.908,73.007H73V13.951ZM69.358,69.365H21.092L3.643,57.153V3.643H51.909l17.449,12.2Z" fill="#fff"/>
        </g>
      </g>
      <g data-type="innerShadowGroup">
        <path id="Caminho_94-2" data-name="Caminho 94" d="M55.787,44.556V18.693L42.591,9.45l-16.1,8v14.5H20.844v11.7H26.49v7.9l-3.725-2.586L16.09,58.48l13.742,9.589,8.36-11.574V43.645h6.193V52.6l9.872,6.93,7.632-10.782Zm-11.4-12.613H38.192V19.968l6.193,4.344Z" transform="translate(-1.437 -0.844)" fill="url(#linear-gradient-2)"/>
        <g transform="matrix(1, 0, 0, 1, 0, 0)" filter="url(#Caminho_94)">
          <path id="Caminho_94-3" data-name="Caminho 94" d="M55.787,44.556V18.693L42.591,9.45l-16.1,8v14.5H20.844v11.7H26.49v7.9l-3.725-2.586L16.09,58.48l13.742,9.589,8.36-11.574V43.645h6.193V52.6l9.872,6.93,7.632-10.782Zm-11.4-12.613H38.192V19.968l6.193,4.344Z" transform="translate(-1.44 -0.84)" fill="#fff"/>
        </g>
      </g>
    </g>
    <g id="Logo_Text_Black" data-name="Logo Text Black" transform="translate(277.603 97.028)">
      <g id="Camada_1" data-name="Camada 1">
        <path id="Caminho_98" data-name="Caminho 98" d="M18.3,0q.652,0,8.852,30.956l-.208.208H20.42c-.371-.217-1.077-2.534-2.118-6.933H8.21c-.968,4.625-1.557,6.933-1.874,6.933H.416L0,30.775,8.418.208,8.626,0ZM13.26,4.426,9.64,18.745h7.377L13.4,4.426Z" fill="#231f20"/>
        <path id="Caminho_99" data-name="Caminho 99" d="M36.018,0H55.533l4.625,4.634V15.686L55.533,20.3H42.671V30.775l-.416.389H36.018l-.4-.389V.4Zm6.653,5.033V15.27h8.852l1.638-1.6V6.626L51.523,5.033Z" transform="translate(-3.379)" fill="#231f20"/>
        <path id="Caminho_100" data-name="Caminho 100" d="M73.292,0H88.454L93.3,4.842V26.321l-4.842,4.842H73.292L68.45,26.321V4.842Zm2.326,7.169V24.23L77.3,25.9h6.933l1.91-1.674V7.169l-1.7-1.684H77.3Z" transform="translate(-6.493)" fill="#231f20"/>
        <path id="Caminho_101" data-name="Caminho 101" d="M100.816,0h22.954l.416.416V5.259l-.416.434h-7.992V30.775l-.444.416h-6.083l-.434-.416V5.693h-8l-.416-.434V.416Z" transform="translate(-9.524)" fill="#231f20"/>
        <path id="Caminho_102" data-name="Caminho 102" d="M132.266,0h6.1l.443.416V12.844h10.3V.416L149.545,0h6.11l.416.416V30.775l-.416.416h-6.11l-.434-.416V19.008h-10.3V30.775l-.443.416h-6.1l-.416-.416V.416Z" transform="translate(-12.508)" fill="#231f20"/>
        <path id="Caminho_103" data-name="Caminho 103" d="M164.737,0h19.6l.416.416V5.051l-.416.434H171.272v7.187h11.767l.416.416v4.625l-.416.389H171.272v7.558h13.278l.416.434v4.68l-.416.416H164.737l-.407-.416V.416Z" transform="translate(-15.589)" fill="#231f20"/>
        <path id="Caminho_104" data-name="Caminho 104" d="M192.4,0h6.236l.416.4V16.084h.19Q207.523,2.77,209.714,0h7.241l.416.4-8.68,12.274,9.051,18.284-.208.208h-7.241q-.407,0-6.436-12.862h-.208q-4.616,6.571-4.616,7.241v5.232l-.416.389H192.38l-.38-.389V.4Z" transform="translate(-18.214)" fill="#231f20"/>
        <path id="Caminho_105" data-name="Caminho 105" d="M226.026,0h19.6l.416.416V5.051l-.416.434h-13.07v7.187h11.767l.416.416v4.625l-.416.444H232.552v7.558h13.324l.416.434v4.625l-.416.416h-19.85l-.416-.416V.416Z" transform="translate(-21.402)" fill="#231f20"/>
        <path id="Caminho_106" data-name="Caminho 106" d="M28.6,44.7v1.512H25.722v2.1h2.715v1.53H25.722v3.675H23.74V44.7Z" transform="translate(-2.252 -4.24)" fill="#231f20"/>
        <path id="Caminho_107" data-name="Caminho 107" d="M35.336,44.7l2.779,8.816H36.033l-.579-1.973H32.738l-.579,1.973H30.24L33.082,44.7Zm-.217,5.367a32.861,32.861,0,0,1-.905-3.811h0c-.136.715-.471,1.982-1.014,3.811Z" transform="translate(-2.869 -4.24)" fill="#231f20"/>
        <path id="Caminho_108" data-name="Caminho 108" d="M43.181,44.7a9.514,9.514,0,0,1,1.448.091,4.091,4.091,0,0,1,1.15.326,1.81,1.81,0,0,1,.815.715,2.38,2.38,0,0,1,.272,1.195,2.1,2.1,0,0,1-.453,1.394,2.163,2.163,0,0,1-1.249.715h0a1.113,1.113,0,0,1,.688.416,3.62,3.62,0,0,1,.5,1.059l.987,2.905H45.218l-.751-2.471a2.109,2.109,0,0,0-.444-.905,1.222,1.222,0,0,0-.815-.217h-.217v3.621H41V44.7Zm-.217,3.838h.353c1.059,0,1.584-.407,1.584-1.222a1,1,0,0,0-.407-.905,2.218,2.218,0,0,0-1.222-.272h-.308Z" transform="translate(-3.889 -4.24)" fill="#231f20"/>
        <path id="Caminho_109" data-name="Caminho 109" d="M54.777,51h0c.145-.905.679-3,1.575-6.336h2.9v8.816h-1.81V50.082c0-1.466,0-2.8.1-3.983h0q-.335,1.493-1.982,7.413H53.926q-1.6-5.657-1.946-7.413h0c.054.905.081,2.218.081,3.983v3.43h-1.8V44.7h2.978Q54.55,49.493,54.777,51Z" transform="translate(-4.768 -4.237)" fill="#231f20"/>
        <path id="Caminho_110" data-name="Caminho 110" d="M67.4,44.427l2.779,8.816H68.084l-.543-1.973H64.825l-.579,1.973H62.3l2.842-8.816Zm-.217,5.367a32.861,32.861,0,0,1-.905-3.811h0c-.136.715-.471,1.982-1.014,3.811Zm-.625-6H65.4l1.041-1.973h2.027Z" transform="translate(-5.91 -3.967)" fill="#231f20"/>
        <path id="Caminho_111" data-name="Caminho 111" d="M78.4,46.345a3.06,3.06,0,0,0-1.195-.217,2.145,2.145,0,0,0-1.81.824,3.24,3.24,0,0,0-.643,2.091,3.331,3.331,0,0,0,.652,2.145,2.19,2.19,0,0,0,1.81.815,3.394,3.394,0,0,0,1.267-.226l.1,1.693a6.5,6.5,0,0,1-1.5.181,4.254,4.254,0,0,1-3.249-1.258,4.734,4.734,0,0,1-1.177-3.349,4.526,4.526,0,0,1,1.168-3.177,4.245,4.245,0,0,1,3.24-1.276,5.3,5.3,0,0,1,1.412.172Z" transform="translate(-6.891 -4.229)" fill="#231f20"/>
        <path id="Caminho_112" data-name="Caminho 112" d="M83.562,44.7v8.816H81.58V44.7Z" transform="translate(-7.739 -4.24)" fill="#231f20"/>
        <path id="Caminho_113" data-name="Caminho 113" d="M90.966,44.7l2.779,8.816H91.654l-.543-1.973H88.4l-.579,1.973H85.87L88.7,44.7Zm-.217,5.367a32.859,32.859,0,0,1-.905-3.811h0c-.136.715-.471,1.982-1.014,3.811Z" transform="translate(-8.146 -4.24)" fill="#231f20"/>
        <path id="Caminho_114" data-name="Caminho 114" d="M102.975,44.7a5.3,5.3,0,0,1,3.566,1.05,4.182,4.182,0,0,1,1.24,3.367,4.091,4.091,0,0,1-1.276,3.331,5.431,5.431,0,0,1-3.621,1.068H100.73V44.7Zm-.19,7.332h.226a2.715,2.715,0,0,0,2.018-.715,3.114,3.114,0,0,0,.679-2.209q0-2.951-2.643-2.942h-.281Z" transform="translate(-9.556 -4.239)" fill="#231f20"/>
        <path id="Caminho_115" data-name="Caminho 115" d="M116.1,44.7v1.512h-3.059v2.073h2.869v1.493h-2.869v2.209h3.249v1.53H111.07V44.7Z" transform="translate(-10.537 -4.24)" fill="#231f20"/>
        <path id="Caminho_116" data-name="Caminho 116" d="M127.908,51h0q.235-1.34,1.584-6.336h2.9v8.816h-1.81V50.082c0-1.466,0-2.8.1-3.983h0q-.335,1.493-1.982,7.413h-1.629q-1.6-5.657-1.946-7.413h0c0,.905.072,2.218.072,3.983v3.43H123.4V44.7h2.969Q127.69,49.493,127.908,51Z" transform="translate(-11.706 -4.237)" fill="#231f20"/>
        <path id="Caminho_117" data-name="Caminho 117" d="M140.524,44.7l2.779,8.816h-2.082l-.543-1.973h-2.715l-.588,1.973H135.41l2.842-8.816Zm-.217,5.367a34.943,34.943,0,0,1-.905-3.811h0c-.136.715-.471,1.982-1,3.811Z" transform="translate(-12.846 -4.24)" fill="#231f20"/>
        <path id="Caminho_118" data-name="Caminho 118" d="M151.3,44.7h1.729v8.816h-2.48a61.006,61.006,0,0,1-2.643-6.834h0c.072,1.122.109,2.2.109,3.249v3.621H146.27V44.7h2.471q2.2,5.3,2.571,6.707h0c0-1.041-.072-2.064-.072-3.068Z" transform="translate(-13.876 -4.24)" fill="#231f20"/>
        <path id="Caminho_119" data-name="Caminho 119" d="M158.612,44.7v8.816H156.63V44.7Z" transform="translate(-14.859 -4.24)" fill="#231f20"/>
        <path id="Caminho_120" data-name="Caminho 120" d="M163.464,44.7a5.847,5.847,0,0,1,3.041.606,2.38,2.38,0,0,1,.978,2.209,2.634,2.634,0,0,1-.905,2.109,3.747,3.747,0,0,1-2.516.76h-.272v3.132H161.78V44.7Zm.2,4.209h.29c1.041,0,1.557-.471,1.557-1.4s-.516-1.312-1.539-1.312h-.308Z" transform="translate(-15.347 -4.239)" fill="#231f20"/>
        <path id="Caminho_121" data-name="Caminho 121" d="M172.382,44.7v5.7c0,1.2.407,1.81,1.2,1.81s1.249-.6,1.249-1.81V44.7h1.937v5.82a3.059,3.059,0,0,1-.905,2.362,3.258,3.258,0,0,1-2.317.8,3.3,3.3,0,0,1-2.335-.8,3.005,3.005,0,0,1-.905-2.362V44.7Z" transform="translate(-16.156 -4.24)" fill="#231f20"/>
        <path id="Caminho_122" data-name="Caminho 122" d="M182.289,44.7V52h2.761v1.512h-4.77V44.7Z" transform="translate(-17.102 -4.24)" fill="#231f20"/>
        <path id="Caminho_123" data-name="Caminho 123" d="M191.964,44.7l2.779,8.816h-2.082l-.543-1.973H189.4l-.579,1.973H186.85L189.7,44.7Zm-.217,5.367a32.872,32.872,0,0,1-.905-3.811h0c-.136.715-.471,1.982-1,3.811Z" transform="translate(-17.725 -4.24)" fill="#231f20"/>
        <path id="Caminho_124" data-name="Caminho 124" d="M202.928,46.345a3.041,3.041,0,0,0-1.186-.217,2.163,2.163,0,0,0-1.81.824,3.765,3.765,0,0,0,0,4.236,2.172,2.172,0,0,0,1.81.815A3.349,3.349,0,0,0,203,51.776l.109,1.693a6.554,6.554,0,0,1-1.5.181h-.235l-.1.634h.272a1.584,1.584,0,0,1,.905.235.815.815,0,0,1,.353.724,1.014,1.014,0,0,1-.434.905,2.037,2.037,0,0,1-1.159.3,4.065,4.065,0,0,1-.905-.072l.063-.634a3.459,3.459,0,0,0,.616.054c.516,0,.769-.154.769-.453s-.208-.425-.643-.425a2.879,2.879,0,0,0-.606.063l.136-1.421a3.883,3.883,0,0,1-2.543-1.484,4.906,4.906,0,0,1-.905-3.032,4.526,4.526,0,0,1,1.195-3.177,4.263,4.263,0,0,1,3.24-1.276,5.431,5.431,0,0,1,1.421.172Z" transform="translate(-18.706 -4.23)" fill="#231f20"/>
        <path id="Caminho_125" data-name="Caminho 125" d="M210.457,44.429l2.715,8.816h-2.082l-.543-1.973h-2.715l-.579,1.973H205.28l2.842-8.816Zm1.122-2.589c-.109,1.168-.534,1.756-1.276,1.756a3.177,3.177,0,0,1-1.023-.281,3.187,3.187,0,0,0-.86-.29.516.516,0,0,0-.362.127,1.14,1.14,0,0,0-.208.48h-.769a2.543,2.543,0,0,1,.407-1.24,1.041,1.041,0,0,1,.905-.453,3.168,3.168,0,0,1,1.195.335,2.254,2.254,0,0,0,.76.217q.407,0,.489-.652ZM210.24,49.8a32.866,32.866,0,0,1-.905-3.811h0c-.136.715-.471,1.982-1.014,3.811Z" transform="translate(-19.474 -3.969)" fill="#231f20"/>
        <path id="Caminho_126" data-name="Caminho 126" d="M222.144,45.753a5.141,5.141,0,0,1,1,3.331,5.114,5.114,0,0,1-1,3.367,3.358,3.358,0,0,1-2.77,1.213,3.412,3.412,0,0,1-2.779-1.2,5.042,5.042,0,0,1-.987-3.295,5.277,5.277,0,0,1,1-3.376,3.684,3.684,0,0,1,5.53,0Zm-4.019,1.068a4.788,4.788,0,0,0-.462,2.326,4.435,4.435,0,0,0,.462,2.209,1.376,1.376,0,0,0,1.249.8,1.394,1.394,0,0,0,1.249-.8,4.525,4.525,0,0,0,.453-2.2,4.825,4.825,0,0,0-.453-2.344,1.358,1.358,0,0,0-2.5,0Z" transform="translate(-20.453 -4.225)" fill="#231f20"/>
      </g>
    </g>
  </g>
</svg>
