<?xml version="1.0" encoding="utf-8"?>
<!-- Generator: Adobe Illustrator 26.0.1, SVG Export Plug-In . SVG Version: 6.00 Build 0)  -->
<svg version="1.1" id="Layer_1" xmlns="http://www.w3.org/2000/svg" xmlns:xlink="http://www.w3.org/1999/xlink" x="0px" y="0px"
	 viewBox="0 0 525.1 395" style="enable-background:new 0 0 525.1 395;" xml:space="preserve">
<style type="text/css">
	.st0{fill:url(#SVGID_1_);}
</style>
<linearGradient id="SVGID_1_" gradientUnits="userSpaceOnUse" x1="1.3433" y1="185.0481" x2="515.4813" y2="185.0481">
	<stop  offset="6.000000e-02" style="stop-color:#3A3A3A"/>
	<stop  offset="0.43" style="stop-color:#414141"/>
	<stop  offset="0.99" style="stop-color:#555555"/>
	<stop  offset="1" style="stop-color:#565656"/>
</linearGradient>
<path class="st0" d="M51.4,133.3l-0.2,0.2c1.1,5.8,1.9,8.9,2.2,9.2l4.2,4l0,0.6l-4.8,5l-0.6,0L28.1,129l0-0.6l4.8-5l0.6,0l12.5,12
	l0.1-0.2c-2.8-11.2-4.4-18.1-4.7-20.7l5.6-5.8l0.6,0l3.1,16.3l21.5,6.8l0,0.3l-5.6,5.8C66.4,138.3,61.3,136.7,51.4,133.3z
	 M250.6,11.8l0.7,0l4.7-4.8l0-0.7L249.5,0h-11.1L250.6,11.8z M138.8,54.6l-17.1-16.5l-0.1-7.6l11.6-12.1l7.6-0.1l17.1,16.5l0.1,7.6
	l-11.6,12.1L138.8,54.6z M129.1,34.2l13.6,13.1l2.6-0.1l5.3-5.5l0.2-2.8l-13.6-13.1l-2.7,0.1l-5.5,5.7L129.1,34.2z M103.3,165.3
	l0.7,0l4.7-4.9l0-0.6l-24.1-23.3l-0.6,0l-4.7,4.9l0,0.7l9.9,9.5l-7.9,8.2l-9.9-9.5l-0.7,0l-4.7,4.9l0,0.6L90.1,179l0.7,0l4.7-4.9
	l0-0.7l-9.3-9l7.9-8.2L103.3,165.3z M33.6,172.2l15.2-15.7l0-0.7l-3.7-3.6l-0.7,0l-10.2,10.5l-6-5.8l9-9.3l0-0.7l-3.7-3.6l-0.7,0
	l-9,9.3l-5.7-5.5l10-10.4l0-0.7l-3.7-3.6l-0.7,0l-15,15.6l0,0.6L33,172.2L33.6,172.2z M48.6,182l6.1-6.4l19.9,19.2l0.7,0l4.7-4.8
	l0-0.7l-19.9-19.2l6.1-6.4l0-0.7l-3.8-3.7l-0.7,0l-17.6,18.2l0,0.6l3.9,3.7L48.6,182z M76.2,128.1l15.2-15.8l0-0.7l-3.7-3.6l-0.7,0
	l-10.2,10.6l-6-5.8l9-9.3l0-0.7l-3.7-3.6l-0.7,0l-9,9.3l-5.7-5.5l10-10.4l0-0.7l-3.7-3.6l-0.7,0l-15,15.6l0,0.7l24.1,23.3
	L76.2,128.1z M140.4,11.7l3.8,3.7l0.7,0l6.1-6.3L171,28.3l0.7,0l4.7-4.8l0-0.7L156.4,3.5l3.4-3.5h-8.7l-10.7,11.1L140.4,11.7z
	 M103.6,87.6l-7.8,8.1c3,4.3,4.3,6.6,4.1,6.8l-4.5,4.7l-0.6,0L76.9,77.1l0-0.3l7.4-7.7c0.3-0.3,10.8,5.2,31.4,16.7l0,0.3l-5,5.2
	C110.3,91.4,107.9,90.2,103.6,87.6z M98.3,84.4l-14.2-8.1L84,76.4l8.6,13.8L98.3,84.4z M146.2,121.6l5.6-5.8l0-0.3l-21.5-6.8
	l-3.1-16.3l-0.6,0l-5.6,5.8c0.3,2.6,1.9,9.5,4.7,20.7l-0.1,0.2l-12.5-12l-0.6,0l-4.8,4.9l0,0.6l24.1,23.3l0.6,0l4.7-4.9l0-0.6
	l-4.2-4c-0.4-0.3-1.1-3.4-2.2-9.2l0.2-0.2C141,120.2,146,121.8,146.2,121.6z M23.7,181.8l0.7,0L29,177l0-0.7L4.9,153l-0.7,0l-2.9,3
	v4.2l8.1,7.8l-7.9,8.2l-0.2-0.2v10.7l9.1,8.8l0.7,0l4.7-4.8l0-0.7l-9.3-9l7.9-8.2L23.7,181.8z M206.1,41.2l-9.9,10.2l8.3,8l0,0.6
	l-4.8,5l-0.6,0L175,41.7l0-0.6l15-15.5l7.3-0.2l8.8,8.5L206.1,41.2z M199,40.5l0-2.5l-5.6-5.4l-2.5,0l-6.8,7l8.1,7.9L199,40.5z
	 M183.2,71.1l-7.7,8c3,4.3,4.3,6.6,4.1,6.8l-4.5,4.7l-0.7,0l-17.8-30.1l0-0.3l7.4-7.7c0.3-0.3,10.8,5.2,31.4,16.7l0,0.3l-5,5.2
	C189.9,74.9,187.5,73.6,183.2,71.1z M177.9,67.9l-14.2-8.1l-0.1,0.1l8.6,13.8L177.9,67.9z M126.4,57.8L116.6,68l8.3,8l0,0.6l-4.8,5
	l-0.6,0L95.4,58.3l0-0.6l15-15.5l7.2-0.1l8.8,8.5L126.4,57.8z M119.4,57.1l0-2.5l-5.6-5.4l-2.5,0l-6.8,7l8.1,7.9L119.4,57.1z
	 M1.3,271.5l2.3-2.3c0.2-0.2-0.6-1.6-2.3-4.2V271.5z M205.7,117.8l-0.7,0l-10.2,10.6l-6-5.8l9-9.3l0-0.7l-3.7-3.6l-0.7,0l-9,9.3
	l-5.7-5.5l10.1-10.4l0-0.7l-3.7-3.6l-0.7,0l-15,15.6l0,0.7l24.1,23.3l0.6,0l15.2-15.7l0-0.6L205.7,117.8z M142.5,183.6l0.1,7.6
	L131,203.2l-7.6,0.1l-17.1-16.5l-0.1-7.6l11.6-12.1l7.6-0.1L142.5,183.6z M135.3,187.6l-13.6-13.1l-2.6,0l-5.5,5.7l0,2.6l13.6,13.1
	l2.6,0l5.3-5.5L135.3,187.6z M208.2,74.4l-0.6,0l-5.6,5.8c0.3,2.6,1.9,9.5,4.7,20.7l-0.1,0.1l-12.5-12l-0.6,0l-4.8,5l0,0.6
	l24.1,23.3l0.6,0l4.8-5l0-0.6l-4.2-4c-0.4-0.3-1.1-3.4-2.2-9.2l0.2-0.2c9.9,3.4,14.9,5,15.2,4.7l5.6-5.8l0-0.3l-21.5-6.9L208.2,74.4
	z M147.2,145.9l0-0.7l-3.8-3.7l-0.7,0L125,159.8l0,0.7l3.8,3.7l0.7,0l6.1-6.4l19.9,19.2l0.7,0l4.7-4.9l0-0.7L141,152.3L147.2,145.9z
	 M113.3,155.7l15.2-15.8l0-0.7l-3.7-3.6l-0.7,0l-10.2,10.5l-6-5.8l9-9.3l0-0.7l-3.7-3.6l-0.7,0l-9,9.3l-5.7-5.5l10-10.4l0-0.7
	l-3.7-3.6l-0.7,0l-15,15.6l0,0.7l24.1,23.3L113.3,155.7z M318.1,0h-11.4l4.6,4.5l-0.1,2.8l-5.3,5.5l-2.6,0L289.9,0h-7.7l0,3.7
	l17.1,16.5l7.6-0.1L318.6,8l-0.1-7.6L318.1,0z M287,23.4l-9.8,10.2l8.3,8l0,0.6l-4.8,5l-0.6,0L256,23.9l0-0.7l15-15.5l7.2-0.1
	l8.8,8.5L287,23.4z M280,22.6l0-2.5l-5.6-5.4l-2.5,0l-6.8,7l8.1,7.9L280,22.6z M248.3,73.8l-0.7,0l-10.2,10.5l-6-5.8l9-9.3l0-0.7
	l-3.7-3.6l-0.7,0l-9,9.3l-5.7-5.5l10-10.3l0-0.7l-3.7-3.6l-0.7,0l-15,15.5l0,0.7l24.1,23.3l0.6,0L252,78l0-0.6L248.3,73.8z
	 M276.3,51.4l0,0.3l-5,5.2c-0.5,0.1-2.8-1.1-7.1-3.6l-7.8,8c3,4.3,4.3,6.6,4.1,6.8l-4.5,4.7l-0.7,0l-17.8-30.1l0-0.3l7.4-7.7
	C245.2,34.3,255.7,39.9,276.3,51.4z M258.8,50l-14.2-8.1l-0.1,0.1l8.6,13.9L258.8,50z M165.5,118.6l-0.7,0l-4.7,4.9l0,0.7l9.9,9.5
	l-7.9,8.2l-9.9-9.5l-0.7,0l-4.7,4.9l0,0.7l24.1,23.3l0.6,0l4.7-4.9l0-0.7l-9.3-9l7.9-8.2l9.3,9l0.7,0l4.7-4.9l0-0.6L165.5,118.6z
	 M218.4,38l-17.1-16.5l-0.1-7.6l11.6-12l7.6-0.1l17.1,16.5l0.1,7.6l-11.6,12L218.4,38z M208.7,17.6l13.6,13.1l2.6,0l5.3-5.5l0.1-2.8
	L216.8,9.3l-2.6,0.1l-5.5,5.7L208.7,17.6z M111.1,206.5l-9.9,10.2l8.3,8l0,0.6l-4.8,4.9l-0.6,0L80,207l0-0.6l15-15.5l7.2-0.1
	l8.8,8.5L111.1,206.5z M104,205.8l0-2.5l-5.6-5.4l-2.5,0l-6.8,7l8.1,7.9L104,205.8z M155.9,111.6l15.2-15.7l0-0.7l-3.7-3.6l-0.7,0
	l-10.2,10.5l-6-5.8l9-9.3l0-0.7l-3.7-3.6l-0.7,0l-9,9.3l-5.7-5.5l10.1-10.4l0-0.7l-3.7-3.6l-0.7,0l-15.1,15.6l0,0.6l24.1,23.3
	L155.9,111.6z M1.3,250.7L2,251l-0.6,0.7v8.7l6-6.2c4.3,2.6,6.7,3.8,7.1,3.6l5-5.2l0-0.3c-7.3-4.1-13.3-7.4-18.1-10V250.7z
	 M186.4,12.4l0.7,0l4.7-4.9l0-0.7L184.6,0h-11.1L186.4,12.4z M30.2,224.4l-9.9,10.2l8.3,8l0,0.6l-4.8,5l-0.6,0L1.3,227.1v-5.2
	L14,208.8l7.2-0.1l8.8,8.5L30.2,224.4z M23.1,223.7l0-2.5l-5.6-5.4l-2.5,0l-6.8,7l8.1,7.9L23.1,223.7z M100.4,234.5l0,0.3l-5,5.2
	c-0.5,0.1-2.8-1.1-7.1-3.6l-7.8,8c3,4.3,4.3,6.6,4.1,6.8l-4.5,4.7l-0.6,0l-17.8-30.1l0-0.3l7.4-7.7C69.3,217.4,79.8,223,100.4,234.5
	z M82.9,233.2L68.7,225l-0.1,0.1l8.6,13.9L82.9,233.2z M61.7,209l-11.6,12.1l-7.6,0.1l-17.1-16.5l-0.1-7.6l11.6-12.1l7.6-0.1
	l17.1,16.5L61.7,209z M54.4,205.5l-13.5-13.1l-2.6,0l-5.5,5.7l0,2.6l13.5,13.1l2.6,0l5.3-5.5L54.4,205.5z M321.7,68.8L336.9,53
	l0-0.7l-3.7-3.6l-0.7,0l-10.2,10.5l-6-5.8l9-9.3l0-0.6l-3.7-3.6l-0.7,0l-9,9.3l-5.7-5.5l10-10.4l0-0.7l-3.7-3.6l-0.7,0l-15,15.6
	l0,0.7l24.1,23.3L321.7,68.8z M160.7,261.8l6.1-6.4l19.9,19.2l0.7,0l4.7-4.8l0-0.7l-19.9-19.2l6.1-6.4l0-0.7l-3.8-3.7l-0.7,0
	l-17.6,18.2l0,0.6l3.9,3.7L160.7,261.8z M188.3,207.9l15.2-15.8l0-0.7l-3.7-3.6l-0.7,0L189,198.5l-6-5.8l9-9.3l0-0.7l-3.7-3.6
	l-0.7,0l-9,9.3L173,183l10-10.4l0-0.7l-3.7-3.6l-0.7,0l-15,15.6l0,0.7l24.1,23.3L188.3,207.9z M283.8,108.1l4.7-4.8l0-0.7
	l-19.9-19.3l6.1-6.4l0-0.7l-3.8-3.7l-0.7,0l-17.6,18.2l0,0.7l3.8,3.7l0.7,0l6.1-6.3l19.9,19.3L283.8,108.1z M145.8,251.9l15.2-15.7
	l0-0.7l-3.7-3.6l-0.7,0l-10.2,10.5l-6-5.8l9-9.3l0-0.7l-3.7-3.6l-0.7,0l-9,9.3l-5.7-5.5l10-10.4l0-0.7l-3.7-3.6l-0.7,0L121,228
	l0,0.6l24.1,23.3L145.8,251.9z M80.4,278.3l0.7,0l6.1-6.4l19.9,19.2l0.7,0l4.7-4.8l0-0.7l-19.9-19.2l6.1-6.3l0-0.7l-3.8-3.7l-0.7,0
	L76.6,274l0,0.7L80.4,278.3z M250.9,134.3l-17.1-16.5l-0.1-7.6l11.6-12.1l7.6-0.1l17.1,16.5l0.1,7.6l-11.6,12.1L250.9,134.3z
	 M241.2,113.9l13.6,13.1l2.6-0.1l5.3-5.5l0.2-2.8l-13.6-13.1l-2.7,0.1l-5.5,5.7L241.2,113.9z M391.4,61.9l0.7,0l4.7-4.9l0-0.7
	l-24.1-23.3l-0.6,0l-4.7,4.9l0,0.7l9.9,9.6l-7.9,8.2l-9.9-9.6l-0.7,0l-4.7,4.8l0,0.6l24.1,23.3l0.7,0l4.7-4.8l0-0.7l-9.3-9l7.9-8.2
	L391.4,61.9z M215.4,245l0.7,0l4.7-4.9l0-0.6l-24.1-23.3l-0.6,0l-4.7,4.9l0,0.7l9.9,9.5l-7.9,8.2l-9.9-9.5l-0.7,0l-4.7,4.9l0,0.6
	l24.1,23.3l0.7,0l4.7-4.9l0-0.7l-9.3-9l7.9-8.2L215.4,245z M295.4,150.8l-7.7,8c3,4.3,4.3,6.6,4.1,6.8l-4.5,4.7l-0.7,0l-17.8-30.1
	l0-0.3l7.4-7.7c0.3-0.3,10.8,5.2,31.4,16.7l0,0.3l-5,5.2C302,154.6,299.7,153.4,295.4,150.8z M290.1,147.6l-14.2-8.1l-0.1,0.1
	l8.6,13.8L290.1,147.6z M258.3,201.3l5.6-5.8l0-0.3l-21.5-6.8l-3.1-16.3l-0.6,0l-5.6,5.8c0.3,2.6,1.9,9.5,4.7,20.7l-0.1,0.2
	l-12.5-12l-0.6,0l-4.8,4.9l0,0.6l24.1,23.3l0.6,0l4.7-4.9l0-0.6l-4.2-4c-0.4-0.3-1.1-3.4-2.2-9.2l0.2-0.2
	C253.1,199.9,258.1,201.5,258.3,201.3z M318.3,120.9l-9.9,10.2l8.3,8l0,0.6l-4.8,5l-0.6,0l-24.1-23.3l0-0.6l15-15.5l7.3-0.2l8.8,8.5
	L318.3,120.9z M311.2,120.3l0-2.5l-5.6-5.4l-2.5,0l-6.8,7l8.1,7.9L311.2,120.3z M225.4,235.4l15.2-15.8l0-0.7l-3.7-3.6l-0.7,0
	L226.1,226l-6-5.8l9-9.3l0-0.7l-3.7-3.6l-0.7,0l-9,9.3l-5.7-5.5l10-10.4l0-0.7l-3.7-3.6l-0.7,0l-15,15.6l0,0.7l24.1,23.3
	L225.4,235.4z M434.3,18.1l5.6-5.8l0-0.3l-21.5-6.8l-1-5.2h-7.3c0.8,3.6,2,8.7,3.7,15.3l-0.1,0.2l-12.5-12l-0.6,0l-4.8,4.9l0,0.6
	l24.1,23.3l0.6,0l4.8-4.9l0-0.6l-4.2-4c-0.4-0.3-1.1-3.4-2.2-9.2l0.2-0.2C429,16.8,434.1,18.4,434.3,18.1z M238.6,137.5l-9.8,10.2
	l8.3,8l0,0.6l-4.8,5l-0.6,0L207.5,138l0-0.6l15-15.5l7.2-0.1l8.8,8.5L238.6,137.5z M231.5,136.8l0-2.5l-5.6-5.4l-2.5,0l-6.8,7
	l8.1,7.9L231.5,136.8z M135.8,261.6l0.7,0l4.7-4.9l0-0.7L117,232.8l-0.7,0l-4.7,4.9l0,0.7l9.9,9.6l-7.9,8.2l-9.9-9.6l-0.7,0
	l-4.7,4.8l0,0.7l24.1,23.3l0.7,0l4.7-4.8l0-0.7l-9.3-9l7.9-8.2L135.8,261.6z M311.8,78.4l0.7,0l4.7-4.9l0-0.7L293,49.6l-0.7,0
	l-4.7,4.9l0,0.7l9.9,9.5l-7.9,8.2l-9.9-9.5l-0.7,0l-4.7,4.8l0,0.7l24.1,23.3l0.7,0l4.7-4.9l0-0.7l-9.3-9l7.9-8.2L311.8,78.4z
	 M215.7,167.4l-7.8,8.1c3,4.3,4.3,6.6,4.1,6.8l-4.5,4.7l-0.6,0L189,156.8l0-0.3l7.4-7.7c0.3-0.3,10.8,5.2,31.4,16.7l0,0.3l-5,5.2
	C222.4,171.2,220,169.9,215.7,167.4z M210.4,164.2l-14.2-8.1l-0.1,0.1l8.6,13.8L210.4,164.2z M178.7,217.8l5.6-5.8l0-0.3l-21.5-6.8
	l-3.1-16.3l-0.6,0l-5.6,5.8c0.3,2.6,1.9,9.5,4.7,20.7l-0.1,0.2l-12.5-12l-0.6,0l-4.8,5l0,0.6l24.1,23.3l0.6,0l4.8-5l0-0.6l-4.2-4
	c-0.4-0.3-1.1-3.4-2.2-9.2l0.2-0.2C173.5,216.5,178.5,218,178.7,217.8z M354.7,34.7l5.6-5.8l0-0.3l-21.5-6.8l-3.1-16.3l-0.6,0
	l-5.6,5.8c0.4,2.6,1.9,9.5,4.7,20.7l-0.1,0.1l-12.5-12l-0.6,0l-4.8,5l0,0.6l24.1,23.3l0.6,0l4.8-5l0-0.6l-4.2-4
	c-0.4-0.3-1.1-3.4-2.2-9.2l0.2-0.2C349.4,33.3,354.4,34.9,354.7,34.7z M339.6,1.4l24.1,23.3l0.7,0L379.5,9l0-0.7l-3.7-3.6l-0.7,0
	L365,15.3l-6-5.8l9-9.3l0-0.2h-8.2l-5.2,5.3L349.1,0h-8.8l-0.8,0.8L339.6,1.4z M317.8,197.6l-0.7,0L307,208.1l-6-5.8l9-9.3l0-0.7
	l-3.7-3.6l-0.7,0l-9,9.3l-5.7-5.5l10.1-10.4l0-0.7l-3.7-3.6l-0.7,0l-15,15.6l0,0.7l24.1,23.3l0.6,0l15.2-15.7l0-0.6L317.8,197.6z
	 M360.4,153.5l-0.7,0l-10.2,10.5l-6-5.8l9-9.3l0-0.7l-3.7-3.6l-0.7,0l-9,9.3l-5.7-5.5l10-10.3l0-0.7l-3.7-3.6l-0.7,0l-15,15.5l0,0.7
	l24.1,23.3l0.6,0l15.2-15.7l0-0.6L360.4,153.5z M388.4,131.1l0,0.3l-5,5.2c-0.5,0.1-2.8-1.1-7.1-3.6l-7.8,8c3,4.3,4.3,6.6,4.1,6.8
	l-4.5,4.7l-0.7,0l-17.8-30.1l0-0.3l7.4-7.7C357.4,114,367.8,119.6,388.4,131.1z M371,129.8l-14.2-8.1l-0.1,0.1l8.6,13.9L371,129.8z
	 M320.3,154.2l-0.6,0l-5.6,5.8c0.3,2.6,1.9,9.5,4.7,20.7l-0.1,0.1l-12.5-12l-0.6,0l-4.8,5l0,0.6l24.1,23.3l0.6,0l4.8-5l0-0.6l-4.2-4
	c-0.4-0.3-1.1-3.4-2.2-9.2l0.2-0.2c9.9,3.4,14.9,5,15.2,4.7l5.6-5.8l0-0.3l-21.5-6.9L320.3,154.2z M277.6,198.3l-0.7,0l-4.7,4.9
	l0,0.7l9.9,9.5l-7.9,8.2l-9.9-9.5l-0.7,0l-4.7,4.9l0,0.7l24.1,23.3l0.6,0l4.7-4.9l0-0.7l-9.3-9l7.9-8.2l9.3,9l0.7,0l4.7-4.9l0-0.6
	L277.6,198.3z M259.3,225.7l0-0.7l-3.8-3.7l-0.7,0l-17.6,18.2l0,0.7l3.8,3.7l0.7,0l6.1-6.4l19.9,19.2l0.7,0l4.7-4.9l0-0.7L253.2,232
	L259.3,225.7z M268,191.3l15.2-15.7l0-0.7l-3.7-3.6l-0.7,0l-10.2,10.5l-6-5.8l9-9.3l0-0.7l-3.7-3.6l-0.7,0l-9,9.3l-5.7-5.5
	l10.1-10.4l0-0.7l-3.7-3.6l-0.7,0l-15.1,15.6l0,0.6l24.1,23.3L268,191.3z M254.6,263.3l0.1,7.6L243.1,283l-7.6,0.1l-17.1-16.5
	l-0.1-7.6L230,247l7.6-0.1L254.6,263.3z M247.4,267.4l-13.6-13.1l-2.6,0l-5.5,5.7l0,2.6l13.6,13.1l2.6,0l5.3-5.5L247.4,267.4z
	 M500.8,0h-14.9l15,14.5l0.6,0l4.8-4.9l0-0.6l-4.2-4C501.9,4.6,501.4,3,500.8,0z M514,0c0.8,0.2,1.2,0.3,1.3,0.2l0.2-0.2H514z
	 M493.8,14.4l-0.7,0L482.9,25l-6-5.8l9-9.3l0-0.7l-3.7-3.6l-0.7,0l-9,9.3l-5.7-5.5L476,0h-8.4l-10.1,10.4l0,0.7l24.1,23.3l0.7,0
	l15.2-15.8l0-0.7L493.8,14.4z M435.2,42.5l0-0.7l-3.8-3.7l-0.6,0l-17.6,18.2l0,0.7l3.8,3.7l0.7,0l6.1-6.4l19.9,19.2l0.7,0l4.7-4.8
	l0-0.7l-19.9-19.2L435.2,42.5z M453.6,15.2l-0.7,0l-4.7,4.9l0,0.7l9.9,9.5l-7.9,8.2l-9.9-9.5l-0.7,0l-4.7,4.9l0,0.7L459,57.7l0.7,0
	l4.7-4.9l0-0.7l-9.3-9l8-8.2l9.3,9l0.7,0l4.7-4.9l0-0.7L453.6,15.2z M430.6,80.1l0.1,7.6L419,99.8l-7.6,0.1l-17.1-16.5l-0.1-7.6
	l11.6-12.1l7.6-0.1L430.6,80.1z M423.4,84.2l-13.6-13.1l-2.6,0l-5.5,5.7l0,2.6l13.6,13.1l2.6,0l5.3-5.5L423.4,84.2z M399.1,103.1
	l-9.8,10.2l8.3,8l0,0.6l-4.8,5l-0.6,0l-24.1-23.3l0-0.7l15-15.5l7.2-0.1l8.8,8.5L399.1,103.1z M392.1,102.4l0-2.5l-5.6-5.4l-2.5,0
	l-6.8,7l8.1,7.9L392.1,102.4z M401.3,52.2l15.2-15.7l0-0.7l-3.7-3.6l-0.7,0L402,42.8l-6-5.8l9-9.3l0-0.7l-3.7-3.6l-0.7,0l-9,9.3
	l-5.7-5.5L396,17l0-0.7l-3.7-3.6l-0.6,0l-15,15.6l0,0.6l24.1,23.3L401.3,52.2z M443.9,8.2l7.9-8.2h-17l8.5,8.2L443.9,8.2z
	 M51.9,348.7l0,0.3l-5,5.2c-0.5,0.1-2.8-1.1-7.1-3.6l-7.7,8c2.9,4.3,4.3,6.6,4.1,6.8l-4.5,4.7l-0.7,0l-17.8-30.1l0-0.3l7.4-7.7
	C20.9,331.6,31.3,337.2,51.9,348.7z M34.4,347.4l-14.2-8.1l-0.1,0.1l8.6,13.9L34.4,347.4z M330.5,117.8l-17.1-16.5l-0.1-7.6l11.6-12
	l7.6-0.1l17.1,16.5l0.1,7.6l-11.6,12L330.5,117.8z M320.8,97.4l13.6,13.1l2.6,0l5.3-5.5l0.1-2.8L328.9,89l-2.6,0.1l-5.5,5.7
	L320.8,97.4z M62.6,320.6l-9.9,10.2l8.3,8l0,0.6l-4.8,5l-0.6,0l-24.1-23.3l0-0.6l15-15.5l7.2-0.1l8.8,8.5L62.6,320.6z M55.6,320
	l0-2.5L50,312l-2.5,0.1l-6.8,7l8.1,7.9L55.6,320z M363.4,91.5l4.7-4.8l0-0.7l-19.9-19.2l6.1-6.4l0-0.7l-3.8-3.7l-0.6,0l-17.6,18.2
	l0,0.6l3.8,3.7l0.7,0l6.1-6.4l19.9,19.2L363.4,91.5z M212.5,314.3l0,0.3l-5,5.2c-0.5,0.1-2.8-1.1-7.1-3.6l-7.8,8
	c3,4.3,4.3,6.6,4.1,6.8l-4.5,4.7l-0.6,0l-17.8-30.1l0-0.3l7.4-7.7C181.4,297.2,191.9,302.8,212.5,314.3z M195,312.9l-14.2-8.1
	l-0.1,0.1l8.6,13.9L195,312.9z M94.2,305.3l-11.6,12l-7.6,0.1L57.9,301l-0.1-7.6l11.6-12l7.6-0.1L94,297.8L94.2,305.3z M86.9,301.8
	l-13.6-13.1l-2.6,0.1l-5.5,5.7l0,2.6l13.6,13.1l2.6,0l5.3-5.5L86.9,301.8z M223.2,286.2l-9.9,10.2l8.3,8l0,0.6l-4.8,4.9l-0.6,0
	l-24.1-23.3l0-0.6l15-15.5l7.2-0.1l8.8,8.5L223.2,286.2z M216.1,285.5l0-2.5l-5.6-5.4l-2.5,0l-6.8,7l8.1,7.9L216.1,285.5z
	 M173.8,288.8l-11.6,12.1l-7.6,0.1l-17.1-16.5l-0.1-7.6l11.6-12.1l7.6-0.1l17.1,16.5L173.8,288.8z M166.5,285.3L153,272.2l-2.6,0
	l-5.5,5.7l0,2.6l13.5,13.1l2.6,0l5.3-5.5L166.5,285.3z M142.3,304.1l-9.9,10.2l8.3,8l0,0.6l-4.8,5l-0.6,0l-24.1-23.3l0-0.6l15-15.5
	l7.2-0.1l8.8,8.5L142.3,304.1z M135.2,303.4l0-2.5l-5.6-5.4l-2.5,0l-6.8,7l8.1,7.9L135.2,303.4z M131.6,332.1l0,0.3l-5,5.2
	c-0.5,0.1-2.8-1.1-7.1-3.6l-7.8,8c3,4.3,4.3,6.6,4.1,6.8l-4.5,4.7l-0.7,0l-17.8-30.1l0-0.3l7.4-7.7
	C100.5,315.1,111,320.6,131.6,332.1z M114.1,330.8l-14.1-8.1l-0.1,0.1l8.7,13.8L114.1,330.8z M1.3,126.4l4.9-5
	c4.3,2.6,6.7,3.8,7.1,3.6l5-5.2l0-0.3c-6.8-3.8-12.4-6.9-17-9.4V126.4z M1.3,137.4l1.2-1.2c0.1-0.2-0.3-1-1.2-2.5V137.4z M6.9,0H1.3
	v5.8L6.9,0z M21.3,50.3l0.7,0l4.7-4.9l0-0.6L2.6,21.5l-0.6,0L1.3,22V31l5.7,5.6l-5.7,5.9v15L8.1,64l0.7,0l4.7-4.9l0-0.7l-9.3-9
	l7.9-8.2L21.3,50.3z M31.3,40.7l15.2-15.8l0-0.7l-3.7-3.6l-0.7,0L31.9,31.2l-6-5.8l9-9.3l0-0.7l-3.7-3.6l-0.7,0l-9,9.3l-5.7-5.5
	l10-10.4l0-0.7l-3.7-3.6l-0.7,0l-15,15.6l0,0.7l24.1,23.3L31.3,40.7z M43.7,3.8l-0.1,0.2l-4-3.9H28.4l21.5,20.8l0.6,0l4.7-4.9l0-0.6
	l-4.2-4C50.8,10.8,50,7.8,48.9,2l0.2-0.2C59,5.2,64,6.8,64.2,6.6l5.6-5.8l0-0.3L68.3,0H42.8C43.1,1.2,43.4,2.4,43.7,3.8z M123.7,2.8
	l-0.7,0l-10.2,10.6l-6-5.8l7.3-7.6h-8.4l-3.3,3.4L99,0H88l23.6,22.8l0.6,0L127.4,7l0-0.6L123.7,2.8z M29.1,91.5l-9.9,10.2l8.3,8
	l0,0.6l-4.8,4.9l-0.6,0L1.3,95.3v-7.4l11.6-12l7.2-0.1l8.8,8.5L29.1,91.5z M22,90.8l0-2.5l-5.6-5.4l-2.5,0l-6.8,7l8.1,7.9L22,90.8z
	 M83.5,3.6l-0.7,0l-4.7,4.9l0,0.7l9.9,9.5l-7.9,8.2l-9.9-9.5l-0.7,0l-4.7,4.9l0,0.7L89,46.1l0.6,0l4.7-4.9l0-0.7l-9.3-9l7.9-8.2
	l9.3,9l0.7,0l4.7-4.9l0-0.6L83.5,3.6z M127.8,0l3,2.9l0.6,0l2.8-2.9H127.8z M65.2,30.9l0-0.7l-3.8-3.7l-0.7,0L43,44.8l0,0.7l3.8,3.7
	l0.7,0l6.1-6.4l19.9,19.2l0.7,0l4.7-4.9l0-0.7L59,37.3L65.2,30.9z M60.5,68.6l0.1,7.6L49,88.2l-7.6,0.1L24.3,71.8l-0.1-7.6
	l11.6-12.1l7.6-0.1L60.5,68.6z M53.3,72.6L39.8,59.5l-2.6,0l-5.5,5.7l0,2.6L45.3,81l2.6,0l5.3-5.5L53.3,72.6z"/>
</svg>
