<svg xmlns="http://www.w3.org/2000/svg" xmlns:xlink="http://www.w3.org/1999/xlink" width="135.687" height="22.502" viewBox="0 0 135.687 22.502">
  <defs>
    <linearGradient id="linear-gradient" x1="0.5" x2="0.5" y2="1" gradientUnits="objectBoundingBox">
      <stop offset="0" stop-color="#ceb682"/>
      <stop offset="1" stop-color="#e5d3ac"/>
    </linearGradient>
  </defs>
  <g id="Grupo_66" data-name="Grupo 66" transform="translate(-592 -2910.5)">
    <path id="source_icons_star-outline" d="M9.8,9.293l3.076-6.2a1.079,1.079,0,0,1,1.931,0l3.076,6.2,6.88,1a1.069,1.069,0,0,1,.6,1.826l-4.977,4.82,1.175,6.81A1.075,1.075,0,0,1,20,24.877L13.843,21.66,7.691,24.877a1.075,1.075,0,0,1-1.562-1.128L7.3,16.939l-4.977-4.82a1.069,1.069,0,0,1,.6-1.826Z" transform="translate(590 2908)" fill="url(#linear-gradient)"/>
    <path id="source_icons_star-outline-2" data-name="source_icons_star-outline" d="M9.8,9.293l3.076-6.2a1.079,1.079,0,0,1,1.931,0l3.076,6.2,6.88,1a1.069,1.069,0,0,1,.6,1.826l-4.977,4.82,1.175,6.81A1.075,1.075,0,0,1,20,24.877L13.843,21.66,7.691,24.877a1.075,1.075,0,0,1-1.562-1.128L7.3,16.939l-4.977-4.82a1.069,1.069,0,0,1,.6-1.826Z" transform="translate(646 2908)" fill="url(#linear-gradient)"/>
    <path id="source_icons_star-outline-3" data-name="source_icons_star-outline" d="M9.8,9.293l3.076-6.2a1.079,1.079,0,0,1,1.931,0l3.076,6.2,6.88,1a1.069,1.069,0,0,1,.6,1.826l-4.977,4.82,1.175,6.81A1.075,1.075,0,0,1,20,24.877L13.843,21.66,7.691,24.877a1.075,1.075,0,0,1-1.562-1.128L7.3,16.939l-4.977-4.82a1.069,1.069,0,0,1,.6-1.826Z" transform="translate(674 2908)" fill="url(#linear-gradient)"/>
    <path id="source_icons_star-outline-4" data-name="source_icons_star-outline" d="M9.8,9.293l3.076-6.2a1.079,1.079,0,0,1,1.931,0l3.076,6.2,6.88,1a1.069,1.069,0,0,1,.6,1.826l-4.977,4.82,1.175,6.81A1.075,1.075,0,0,1,20,24.877L13.843,21.66,7.691,24.877a1.075,1.075,0,0,1-1.562-1.128L7.3,16.939l-4.977-4.82a1.069,1.069,0,0,1,.6-1.826Z" transform="translate(702 2908)" fill="url(#linear-gradient)"/>
    <path id="source_icons_star-outline-5" data-name="source_icons_star-outline" d="M9.8,9.293l3.076-6.2a1.079,1.079,0,0,1,1.931,0l3.076,6.2,6.88,1a1.069,1.069,0,0,1,.6,1.826l-4.977,4.82,1.175,6.81A1.075,1.075,0,0,1,20,24.877L13.843,21.66,7.691,24.877a1.075,1.075,0,0,1-1.562-1.128L7.3,16.939l-4.977-4.82a1.069,1.069,0,0,1,.6-1.826Z" transform="translate(618 2908)" fill="url(#linear-gradient)"/>
  </g>
</svg>
