<?xml version="1.0" encoding="UTF-8" standalone="no"?>
<svg
   width="38.759998"
   height="39"
   fill="none"
   version="1.1"
   id="svg44"
   sodipodi:docname="36B424nhiL4.svg"
   inkscape:version="1.1.1 (3bf5ae0d25, 2021-09-20)"
   xmlns:inkscape="http://www.inkscape.org/namespaces/inkscape"
   xmlns:sodipodi="http://sodipodi.sourceforge.net/DTD/sodipodi-0.dtd"
   xmlns:xlink="http://www.w3.org/1999/xlink"
   xmlns="http://www.w3.org/2000/svg"
   xmlns:svg="http://www.w3.org/2000/svg">
  <sodipodi:namedview
     id="namedview46"
     pagecolor="#505050"
     bordercolor="#eeeeee"
     borderopacity="1"
     inkscape:pageshadow="0"
     inkscape:pageopacity="0"
     inkscape:pagecheckerboard="0"
     showgrid="false"
     fit-margin-top="0"
     fit-margin-left="0"
     fit-margin-right="0"
     fit-margin-bottom="0"
     inkscape:zoom="2.6185048"
     inkscape:cx="20.240559"
     inkscape:cy="-3.6280247"
     inkscape:window-width="1920"
     inkscape:window-height="1009"
     inkscape:window-x="-8"
     inkscape:window-y="-8"
     inkscape:window-maximized="1"
     inkscape:current-layer="svg44" />
  <path
     fill="url(#pattern1_whatsapp_desktop_logo)"
     d="M 0,0 H 38.76 V 39 H 0 Z"
     id="path6"
     style="fill:url(#pattern2003)" />
  <path
     d="M 1.267,37.614 3.839,28.206 A 18.217,18.217 0 0 1 1.433,19.13 C 1.414,9.094 9.515,0.943 19.472,0.943 c 4.831,0 9.368,1.885 12.785,5.323 3.417,3.438 5.29,8.003 5.29,12.864 0,10.018 -8.1,18.17 -18.057,18.17 a 17.82,17.82 0 0 1 -8.633,-2.218 z m 10.013,-5.804 0.551,0.333 a 14.955,14.955 0 0 0 7.642,2.107 c 8.266,0 15.008,-6.784 15.008,-15.101 0,-4.03 -1.561,-7.837 -4.39,-10.684 C 27.26,5.62 23.476,4.03 19.471,4.03 c -8.285,0 -15.027,6.784 -15.027,15.101 0,2.847 0.79,5.638 2.297,8.04 l 0.349,0.574 -1.525,5.582 5.713,-1.516 z"
     fill="#ffffff"
     id="path8" />
  <path
     d="m 1.892,36.985 2.48,-9.093 A 17.608,17.608 0 0 1 2.039,19.13 c 0,-9.666 7.826,-17.54 17.433,-17.54 4.666,0 9.038,1.83 12.344,5.138 a 17.506,17.506 0 0 1 5.107,12.402 c 0,9.667 -7.825,17.541 -17.433,17.541 -2.92,0 -5.786,-0.74 -8.34,-2.144 z"
     fill="url(#paint0_linear_whatsapp_desktop_logo)"
     id="path10"
     style="fill:url(#paint0_linear_whatsapp_desktop_logo)" />
  <path
     fill="url(#pattern2_whatsapp_desktop_logo)"
     d="M 0,0 H 38.76 V 39 H 0 Z"
     id="path12"
     style="fill:url(#pattern2005)" />
  <path
     d="M 1.267,37.614 3.839,28.206 A 18.217,18.217 0 0 1 1.433,19.13 C 1.414,9.094 9.515,0.943 19.472,0.943 c 4.831,0 9.368,1.885 12.785,5.323 3.417,3.438 5.29,8.003 5.29,12.864 0,10.018 -8.1,18.17 -18.057,18.17 a 17.82,17.82 0 0 1 -8.633,-2.218 z m 10.013,-5.804 0.551,0.333 a 14.955,14.955 0 0 0 7.642,2.107 c 8.266,0 15.008,-6.784 15.008,-15.101 0,-4.03 -1.561,-7.837 -4.39,-10.684 C 27.26,5.62 23.476,4.03 19.471,4.03 c -8.285,0 -15.027,6.784 -15.027,15.101 0,2.847 0.79,5.638 2.297,8.04 l 0.349,0.574 -1.525,5.582 5.713,-1.516 z"
     fill="url(#paint1_linear_whatsapp_desktop_logo)"
     id="path14"
     style="fill:url(#paint1_linear_whatsapp_desktop_logo)" />
  <path
     fill="url(#pattern3_whatsapp_desktop_logo)"
     d="M 8.634,9.242 H 30.31 V 29.759 H 8.634 Z"
     id="path16"
     style="fill:url(#pattern2007)" />
  <path
     fill-rule="evenodd"
     clip-rule="evenodd"
     d="m 14.971,11.515 c -0.33,-0.758 -0.698,-0.776 -1.01,-0.776 -0.276,-0.019 -0.57,-0.019 -0.882,-0.019 -0.294,0 -0.79,0.111 -1.212,0.573 -0.423,0.462 -1.58,1.553 -1.58,3.79 0,2.236 1.617,4.399 1.837,4.694 0.22,0.296 3.123,5.028 7.715,6.858 3.821,1.515 4.593,1.22 5.42,1.127 0.826,-0.092 2.663,-1.09 3.049,-2.163 0.367,-1.053 0.367,-1.977 0.257,-2.162 -0.11,-0.185 -0.423,-0.296 -0.864,-0.536 -0.459,-0.222 -2.663,-1.33 -3.086,-1.479 -0.422,-0.148 -0.716,-0.222 -1.01,0.222 -0.294,0.462 -1.157,1.479 -1.433,1.774 -0.257,0.296 -0.532,0.333 -0.973,0.111 -0.46,-0.221 -1.91,-0.702 -3.638,-2.255 -1.34,-1.201 -2.24,-2.698 -2.516,-3.142 -0.257,-0.462 -0.037,-0.702 0.202,-0.924 0.202,-0.203 0.46,-0.536 0.68,-0.795 0.22,-0.259 0.293,-0.462 0.459,-0.758 0.147,-0.295 0.073,-0.573 -0.037,-0.794 -0.11,-0.204 -0.974,-2.44 -1.378,-3.346 z"
     fill="#ffffff"
     id="path18" />
  <defs
     id="defs42">
    <pattern
       inkscape:collect="always"
       xlink:href="#pattern3_whatsapp_desktop_logo"
       id="pattern2007" />
    <pattern
       inkscape:collect="always"
       xlink:href="#pattern2_whatsapp_desktop_logo"
       id="pattern2005" />
    <pattern
       inkscape:collect="always"
       xlink:href="#pattern1_whatsapp_desktop_logo"
       id="pattern2003" />
    <pattern
       id="pattern0_whatsapp_desktop_logo"
       patternContentUnits="objectBoundingBox"
       width="1"
       height="1">
      <use
         xlink:href="#image0"
         id="use20" />
    </pattern>
    <pattern
       id="pattern1_whatsapp_desktop_logo"
       patternContentUnits="objectBoundingBox"
       width="1"
       height="1">
      <use
         xlink:href="#image1"
         id="use23" />
    </pattern>
    <pattern
       id="pattern2_whatsapp_desktop_logo"
       patternContentUnits="objectBoundingBox"
       width="1"
       height="1">
      <use
         xlink:href="#image1"
         id="use26" />
    </pattern>
    <pattern
       id="pattern3_whatsapp_desktop_logo"
       patternContentUnits="objectBoundingBox"
       width="1"
       height="1">
      <use
         xlink:href="#image2"
         id="use29" />
    </pattern>
    <linearGradient
       id="paint0_linear_whatsapp_desktop_logo"
       x1="19.403999"
       y1="36.983002"
       x2="19.403999"
       y2="1.5829999"
       gradientUnits="userSpaceOnUse">
      <stop
         stop-color="#20B038"
         id="stop32" />
      <stop
         offset="1"
         stop-color="#60D66A"
         id="stop34" />
    </linearGradient>
    <linearGradient
       id="paint1_linear_whatsapp_desktop_logo"
       x1="19.403999"
       y1="37.618"
       x2="19.403999"
       y2="0.94800001"
       gradientUnits="userSpaceOnUse">
      <stop
         stop-color="#F9F9F9"
         id="stop37" />
      <stop
         offset="1"
         stop-color="#fff"
         id="stop39" />
    </linearGradient>
  </defs>
</svg>
